<svg xmlns="http://www.w3.org/2000/svg" enable-background="new 0 0 1920 1080" viewBox="0 0 1920 1080"><path fill="#e0f0ff" d="M578.886 825.176c-8.606-.164-28.859-22.688-35.077-27.765a1827.635 1827.635 0 0 1-90.719-79.197c-68.62-64.001-144.243-140.093-186.401-225.052-22.459-45.262-32.219-99.186-15.024-146.698 19.926-55.056 71.233-91.733 121.006-122.569 74.009-45.851 154.623-87.778 241.629-90.888 78.872-2.819 154.786 26.468 231.449 45.218 35.301 8.634 72.704 15.025 107.643 5.026 29.025-8.307 53.642-27.147 79.82-42.187 127.146-73.052 292.874-57.225 371.15 76.477 13.235 22.606 24.151 48.532 46.5 62.195 25.714 15.721 58.884 10.492 87.683 19.376 36.391 11.226 62.759 44.905 73.284 81.505 10.525 36.6 7.264 75.806-.251 113.141-12.078 60.006-35.075 117.767-67.317 169.784-14.34 23.135-27.587 46.727-51.841 58.569-22.97 11.215-49.443 16.044-69.652 32.498-16.574 13.495-29.992 28.898-48.384 41.079-43.4 28.746-82.909 43.064-133.548 42.099l-661.95-12.611z" opacity=".75"/><path fill="#f7f6f1" d="M1576.142 830.248c57.177-39.533 125.342-183.299 130.299-286.166-132.612 59.779-130.299 286.166-130.299 286.166z"/><path fill="#4c98c4" d="M1575.637 831.221a1.096 1.096 0 0 1-.592-.962c-.006-.568-.396-57.472 15.453-120.943 9.317-37.31 22.339-69.569 38.707-95.881 20.501-32.957 46.335-56.627 76.785-70.353a1.099 1.099 0 0 1 1.546 1.052c-2.336 48.474-18.981 109.43-45.667 167.24-12.471 27.016-26.665 52.113-41.047 72.578-15.18 21.601-30.003 37.48-44.057 47.197a1.099 1.099 0 0 1-1.128.072zm17-121.419c-14.071 56.327-15.297 107.458-15.393 118.32 26.716-19.407 57.466-63.146 82.634-117.666 26.241-56.847 42.73-116.716 45.374-164.623-66.959 31.163-98.192 106.235-112.615 163.969z"/><path fill="#97c4de" d="M1408.995 830.248c-28.092-39.715-143.236-263.453-80.441-422.495 118.448 145.071 98.619 422.495 98.619 422.495h-18.178z"/><path fill="#4c98c4" d="M1408.099 830.881c-13.67-19.326-49.856-85.529-74.457-166.816-13.783-45.54-21.876-88.85-24.057-128.727-2.63-48.103 3.409-91.165 17.948-127.988a1.097 1.097 0 0 1 1.869-.291c27.105 33.197 49.168 76.12 65.575 127.577 13.114 41.128 22.667 87.775 28.393 138.643 9.747 86.589 4.945 156.352 4.895 157.047a1.096 1.096 0 0 1-1.094 1.018h-18.177c-.355 0-.689-.172-.895-.463zm13.092-157.357c-8.911-79.158-32.168-188.908-92.302-263.616-32.329 83.891-14.175 184.048 6.851 253.522 24.331 80.391 59.979 145.914 73.823 165.721h16.58c.552-8.91 4.133-74.926-4.952-155.627z"/><path fill="#2e6c9e" d="M1450.447 520.976c-.407 125.561-26.849 309.27-26.849 309.27h28.098s110.405-317.928-36.666-616.284c0 0 35.817 181.46 35.417 307.014z"/><path fill="#f7f6f1" d="M1392.409 830.246h31.189s26.442-183.709 26.849-309.27c.4-125.554-35.417-307.014-35.417-307.014-52.878 168.594-46.787 516.027-22.621 616.284z"/><path fill="#4c98c4" d="M1423.597 831.343h-31.188c-.507 0-.947-.347-1.066-.84-12.542-52.036-19.62-165.681-17.611-282.791 1.096-63.911 4.889-126.345 10.968-180.551 6.968-62.136 16.821-113.79 29.284-153.527a1.097 1.097 0 0 1 2.122.116c.09.454 9.062 46.09 17.868 106.478 8.13 55.747 17.777 135.827 17.57 200.751-.402 124.201-26.596 307.585-26.86 309.423-.079.54-.541.941-1.087.941zm-30.323-2.194h29.371c2.037-14.413 26.317-188.734 26.704-308.177.207-64.79-9.428-144.755-17.547-200.428-7.242-49.662-14.595-89.331-17.019-102.063-30.593 100.996-37.486 249.218-38.859 329.267-1.995 116.316 4.973 229.151 17.35 281.401z"/><path fill="#f7f6f1" d="M1576.142 830.248s116.025-316.835 54.883-554.85c-88.742 185.02-98.094 474.165-89.831 554.85h34.948z"/><path fill="#4c98c4" d="M1540.102 830.359c-4.371-42.687-3.563-135.541 8.541-238.539 10.452-88.944 33.058-216.123 81.393-316.896a1.097 1.097 0 0 1 2.051.201c13.972 54.392 19.777 117.449 17.253 187.42-2.019 55.95-9.337 116.424-21.752 179.744-21.136 107.798-50.125 187.542-50.416 188.335-.158.432-.569.72-1.03.72h-34.949a1.096 1.096 0 0 1-1.091-.985zm85.333-188.491c19.314-98.509 35.793-241.148 5.273-363.254-84.496 178.759-97.402 460.843-88.523 550.537h33.187c2.941-8.206 30.03-85.105 50.063-187.283z"/><path fill="#4c98c4" d="M1486.455 830.248h54.738s90.886-230.815 31.397-471.66c-59.489 91.261-112.782 274.475-86.135 471.66z"/><path fill="#f7f6f1" d="M1436.161 344.64a1.019 1.019 0 0 1-.903-1.488l17.595-33.898a1.02 1.02 0 0 1 1.808.938l-17.595 33.898c-.182.35-.537.55-.905.55zM1450.447 526.924a1.018 1.018 0 0 1-.917-1.46l34.695-72.157a1.019 1.019 0 0 1 1.836.882l-34.695 72.157a1.02 1.02 0 0 1-.919.578zM1441.646 676.383a1.02 1.02 0 0 1-.33-1.981l43.497-14.905a1.019 1.019 0 0 1 .661 1.926l-43.497 14.905a1.044 1.044 0 0 1-.331.055zM1510.621 831.266a1.019 1.019 0 0 0 1.017-1.103c-1.494-17.986 7.793-116.399 21.142-224.047 15.546-125.366 30.789-217.777 40.775-247.201a1.019 1.019 0 0 0-1.929-.655c-10.028 29.547-25.305 122.11-40.868 247.605-13.364 107.766-22.654 206.363-21.151 224.467.044.532.49.934 1.014.934z"/><path fill="#f7f6f1" d="M1555.137 442.01c.171 0 .344-.043.503-.134l30.122-17.167a1.019 1.019 0 0 0-1.008-1.77l-30.122 17.166a1.019 1.019 0 0 0 .505 1.905zM1537.395 563.007c.104 0 .209-.016.313-.05l55.389-17.906a1.018 1.018 0 0 0-.626-1.938l-55.389 17.906a1.018 1.018 0 0 0 .313 1.988zM1524.413 668.93l.061-.002 58.083-3.425a1.018 1.018 0 1 0-.12-2.034l-58.083 3.425a1.019 1.019 0 0 0 .059 2.036zM1554.516 791.267a1.02 1.02 0 0 0 .228-2.011l-41.471-9.555a1.018 1.018 0 1 0-.457 1.985l41.471 9.555c.077.017.154.026.229.026z"/><path fill="#4c98c4" d="M1599.09 758.133c.473 0 .909-.308 1.051-.785 5.503-18.544 24.243-60.928 47.742-107.98 24.874-49.805 47.088-88.911 59.421-104.608a1.096 1.096 0 1 0-1.725-1.355c-12.42 15.807-34.722 55.053-59.659 104.983-23.551 47.155-42.346 89.68-47.882 108.336a1.097 1.097 0 0 0 1.052 1.409zM1681.776 416.191h-2.475a2.063 2.063 0 1 1 0-4.126h2.475a2.063 2.063 0 1 1 0 4.126zM1727.429 416.191h-11.413a2.063 2.063 0 1 1 0-4.126h11.413a2.063 2.063 0 1 1 0 4.126zm-22.827 0h-11.413a2.063 2.063 0 1 1 0-4.126h11.413a2.063 2.063 0 1 1 0 4.126zM1743.792 416.191h-4.95a2.063 2.063 0 1 1 0-4.126h2.887v-2.887a2.063 2.063 0 1 1 4.126 0v4.95a2.063 2.063 0 0 1-2.063 2.063zM1743.792 400.892a2.063 2.063 0 0 1-2.063-2.063V388.48a2.063 2.063 0 1 1 4.126 0v10.349a2.063 2.063 0 0 1-2.063 2.063zm0-20.698a2.063 2.063 0 0 1-2.063-2.063v-10.349a2.063 2.063 0 1 1 4.126 0v10.349a2.063 2.063 0 0 1-2.063 2.063zm0-20.698a2.063 2.063 0 0 1-2.063-2.063v-10.349a2.063 2.063 0 1 1 4.126 0v10.349a2.064 2.064 0 0 1-2.063 2.063zm0-20.699a2.063 2.063 0 0 1-2.063-2.063v-10.349a2.063 2.063 0 1 1 4.126 0v10.349a2.063 2.063 0 0 1-2.063 2.063zm0-20.698a2.063 2.063 0 0 1-2.063-2.063v-10.349a2.063 2.063 0 1 1 4.126 0v10.349a2.063 2.063 0 0 1-2.063 2.063zm0-20.698a2.063 2.063 0 0 1-2.063-2.063v-10.349a2.062 2.062 0 1 1 4.126 0v10.349a2.064 2.064 0 0 1-2.063 2.063zm0-20.698a2.063 2.063 0 0 1-2.063-2.063v-10.349a2.063 2.063 0 1 1 4.126 0v10.349a2.064 2.064 0 0 1-2.063 2.063zM1743.792 256.004a2.063 2.063 0 0 1-2.063-2.063v-2.887h-2.887a2.063 2.063 0 1 1 0-4.126h4.95c1.139 0 2.063.923 2.063 2.063v4.95a2.063 2.063 0 0 1-2.063 2.063zM1729.028 251.054h-9.813a2.063 2.063 0 1 1 0-4.126h9.813a2.063 2.063 0 1 1 0 4.126zm-19.626 0h-9.813a2.063 2.063 0 1 1 0-4.126h9.813a2.063 2.063 0 1 1 0 4.126zm-19.627 0h-9.813a2.063 2.063 0 1 1 0-4.126h9.813a2.063 2.063 0 1 1 0 4.126zm-19.627 0h-9.813a2.063 2.063 0 1 1 0-4.126h9.813a2.063 2.063 0 1 1 0 4.126zm-19.626 0h-9.813a2.063 2.063 0 1 1 0-4.126h9.813a2.063 2.063 0 1 1 0 4.126zm-19.627 0h-9.813a2.063 2.063 0 1 1 0-4.126h9.813a2.063 2.063 0 1 1 0 4.126zm-19.626 0h-9.813a2.063 2.063 0 1 1 0-4.126h9.813a2.063 2.063 0 1 1 0 4.126zm-19.627 0h-9.813a2.063 2.063 0 1 1 0-4.126h9.813a2.063 2.063 0 1 1 0 4.126zm-19.627 0h-9.813a2.063 2.063 0 1 1 0-4.126h9.813a2.063 2.063 0 1 1 0 4.126zm-19.626 0h-9.813a2.063 2.063 0 1 1 0-4.126h9.813a2.063 2.063 0 1 1 0 4.126zm-19.627 0h-9.813a2.063 2.063 0 1 1 0-4.126h9.813a2.063 2.063 0 1 1 0 4.126zm-19.627 0h-9.813a2.063 2.063 0 1 1 0-4.126h9.813a2.063 2.063 0 1 1 0 4.126zm-19.626 0h-9.813a2.063 2.063 0 1 1 0-4.126h9.813a2.063 2.063 0 1 1 0 4.126zm-19.627 0h-9.813a2.063 2.063 0 1 1 0-4.126h9.813a2.063 2.063 0 1 1 0 4.126zm-19.627 0h-9.813a2.062 2.062 0 1 1 0-4.126h9.813a2.063 2.063 0 1 1 0 4.126zm-19.626 0h-9.813a2.063 2.063 0 1 1 0-4.126h9.813a2.063 2.063 0 1 1 0 4.126zm-19.627 0h-9.813a2.063 2.063 0 1 1 0-4.126h9.813a2.063 2.063 0 1 1 0 4.126zm-19.627 0h-9.813a2.063 2.063 0 1 1 0-4.126h9.813a2.063 2.063 0 1 1 0 4.126zm-19.626 0h-9.813a2.063 2.063 0 1 1 0-4.126h9.813a2.063 2.063 0 1 1 0 4.126zm-19.627 0h-9.813a2.063 2.063 0 1 1 0-4.126h9.813a2.063 2.063 0 1 1 0 4.126zm-19.627 0h-9.813a2.063 2.063 0 1 1 0-4.126h9.813a2.063 2.063 0 1 1 0 4.126zm-19.626 0h-9.813a2.063 2.063 0 1 1 0-4.126h9.813a2.063 2.063 0 1 1 0 4.126zm-19.627 0h-9.813a2.063 2.063 0 1 1 0-4.126h9.813a2.063 2.063 0 1 1 0 4.126zm-19.626 0h-9.813a2.063 2.063 0 1 1 0-4.126h9.813a2.063 2.063 0 1 1 0 4.126zm-19.627 0h-9.813a2.063 2.063 0 1 1 0-4.126h9.813a2.063 2.063 0 1 1 0 4.126zm-19.627 0h-9.813a2.063 2.063 0 1 1 0-4.126h9.813a2.063 2.063 0 1 1 0 4.126zm-19.627 0h-9.813a2.063 2.063 0 1 1 0-4.126h9.813a2.063 2.063 0 1 1 0 4.126zm-19.626 0h-9.813a2.063 2.063 0 1 1 0-4.126h9.813a2.063 2.063 0 1 1 0 4.126zM1179.482 251.054h-4.95a2.063 2.063 0 0 1-2.063-2.063v-4.95a2.063 2.063 0 1 1 4.126 0v2.887h2.887a2.063 2.063 0 1 1 0 4.126zM1174.532 237.033a2.063 2.063 0 0 1-2.063-2.063v-9.071a2.063 2.063 0 1 1 4.126 0v9.071a2.063 2.063 0 0 1-2.063 2.063zm0-18.143a2.063 2.063 0 0 1-2.063-2.063v-9.071a2.063 2.063 0 1 1 4.126 0v9.071c0 1.14-.924 2.063-2.063 2.063zm0-18.143a2.063 2.063 0 0 1-2.063-2.063v-9.071a2.063 2.063 0 1 1 4.126 0v9.071c0 1.14-.924 2.063-2.063 2.063zM1174.532 182.605a2.063 2.063 0 0 1-2.063-2.063v-2.887h-2.888a2.063 2.063 0 1 1 0-4.126h4.95c1.139 0 2.063.923 2.063 2.063v4.95a2.061 2.061 0 0 1-2.062 2.063zM1159.504 177.655h-10.078a2.063 2.063 0 1 1 0-4.126h10.078a2.063 2.063 0 1 1 0 4.126zm-20.157 0h-10.078a2.063 2.063 0 1 1 0-4.126h10.078a2.063 2.063 0 1 1 0 4.126zm-20.157 0h-10.078a2.063 2.063 0 1 1 0-4.126h10.078a2.063 2.063 0 1 1 0 4.126zm-20.157 0h-10.079a2.063 2.063 0 1 1 0-4.126h10.079a2.063 2.063 0 1 1 0 4.126zm-20.157 0h-10.078a2.063 2.063 0 1 1 0-4.126h10.078a2.063 2.063 0 1 1 0 4.126zm-20.157 0h-10.078a2.063 2.063 0 1 1 0-4.126h10.078a2.063 2.063 0 1 1 0 4.126zm-20.157 0h-10.078a2.063 2.063 0 1 1 0-4.126h10.078a2.063 2.063 0 1 1 0 4.126zm-20.157 0h-10.078a2.063 2.063 0 1 1 0-4.126h10.078a2.063 2.063 0 1 1 0 4.126zm-20.157 0H988.17a2.063 2.063 0 1 1 0-4.126h10.078a2.063 2.063 0 1 1 0 4.126zm-20.157 0h-10.079a2.063 2.063 0 1 1 0-4.126h10.079a2.063 2.063 0 1 1 0 4.126zm-20.157 0h-10.078a2.063 2.063 0 1 1 0-4.126h10.078a2.063 2.063 0 1 1 0 4.126zm-20.157 0h-10.078a2.063 2.063 0 1 1 0-4.126h10.078a2.063 2.063 0 1 1 0 4.126zm-20.157 0h-10.078a2.063 2.063 0 1 1 0-4.126h10.078a2.063 2.063 0 1 1 0 4.126zm-20.157 0h-10.078a2.063 2.063 0 1 1 0-4.126h10.078a2.063 2.063 0 1 1 0 4.126zM877.306 177.655h-4.95a2.063 2.063 0 1 1 0-4.126h4.95a2.063 2.063 0 1 1 0 4.126zM538.584 541.759h-9.9a2.063 2.063 0 1 1 0-4.126h9.9a2.063 2.063 0 1 1 0 4.126zm-19.8 0h-9.9a2.063 2.063 0 1 1 0-4.126h9.9a2.063 2.063 0 1 1 0 4.126zm-19.8 0h-9.9a2.063 2.063 0 1 1 0-4.126h9.9a2.063 2.063 0 1 1 0 4.126zm-19.799 0h-9.9a2.063 2.063 0 1 1 0-4.126h9.9a2.063 2.063 0 1 1 0 4.126zm-19.801 0h-9.9a2.063 2.063 0 1 1 0-4.126h9.9a2.063 2.063 0 1 1 0 4.126zm-19.799 0h-9.9a2.063 2.063 0 1 1 0-4.126h9.9a2.063 2.063 0 1 1 0 4.126zm-19.801 0h-9.9a2.063 2.063 0 1 1 0-4.126h9.9a2.063 2.063 0 1 1 0 4.126zm-19.8 0h-9.9a2.063 2.063 0 1 1 0-4.126h9.9a2.063 2.063 0 1 1 0 4.126zm-19.799 0h-9.9a2.063 2.063 0 1 1 0-4.126h9.9a2.063 2.063 0 1 1 0 4.126zm-19.801 0h-9.9a2.063 2.063 0 1 1 0-4.126h9.9a2.063 2.063 0 1 1 0 4.126zm-19.799 0h-9.9a2.063 2.063 0 1 1 0-4.126h9.9a2.063 2.063 0 1 1 0 4.126zm-19.801 0h-9.9a2.063 2.063 0 1 1 0-4.126h9.9a2.063 2.063 0 1 1 0 4.126zm-19.8 0h-9.9a2.063 2.063 0 1 1 0-4.126h9.9a2.063 2.063 0 1 1 0 4.126zm-19.799 0h-9.9a2.063 2.063 0 1 1 0-4.126h9.9a2.063 2.063 0 1 1 0 4.126zm-19.801 0h-9.9a2.063 2.063 0 1 1 0-4.126h9.9a2.063 2.063 0 1 1 0 4.126zm-19.8 0h-9.9a2.063 2.063 0 1 1 0-4.126h9.9a2.063 2.063 0 1 1 0 4.126zm-19.8 0h-9.9a2.063 2.063 0 1 1 0-4.126h9.9a2.063 2.063 0 1 1 0 4.126zm-19.8 0h-9.9a2.063 2.063 0 1 1 0-4.126h9.9a2.063 2.063 0 1 1 0 4.126zm341.76-4.739a2.063 2.063 0 0 1-2.063-2.063v-9.9a2.063 2.063 0 1 1 4.126 0v9.9a2.063 2.063 0 0 1-2.063 2.063zm-352.73-4.09a2.063 2.063 0 0 1-2.063-2.063v-9.9a2.063 2.063 0 1 1 4.126 0v9.9a2.063 2.063 0 0 1-2.063 2.063zm352.73-15.71a2.063 2.063 0 0 1-2.063-2.063v-9.9a2.063 2.063 0 1 1 4.126 0v9.9a2.063 2.063 0 0 1-2.063 2.063zm-352.73-4.09a2.063 2.063 0 0 1-2.063-2.063v-9.9a2.063 2.063 0 1 1 4.126 0v9.9a2.063 2.063 0 0 1-2.063 2.063zm352.73-15.71a2.063 2.063 0 0 1-2.063-2.063v-9.9a2.063 2.063 0 1 1 4.126 0v9.9a2.063 2.063 0 0 1-2.063 2.063zm-352.73-4.09a2.063 2.063 0 0 1-2.063-2.063v-9.9a2.063 2.063 0 1 1 4.126 0v9.9a2.063 2.063 0 0 1-2.063 2.063zm352.73-15.71a2.063 2.063 0 0 1-2.063-2.063v-9.9a2.063 2.063 0 1 1 4.126 0v9.9a2.063 2.063 0 0 1-2.063 2.063zm-352.73-4.09a2.063 2.063 0 0 1-2.063-2.063v-9.9a2.063 2.063 0 1 1 4.126 0v9.9a2.063 2.063 0 0 1-2.063 2.063zm352.73-15.71a2.063 2.063 0 0 1-2.063-2.063v-9.9a2.063 2.063 0 1 1 4.126 0v9.9a2.063 2.063 0 0 1-2.063 2.063zm-352.73-4.09a2.063 2.063 0 0 1-2.063-2.063v-9.9a2.063 2.063 0 1 1 4.126 0v9.9a2.063 2.063 0 0 1-2.063 2.063zm352.73-15.71a2.063 2.063 0 0 1-2.063-2.063v-9.9a2.063 2.063 0 1 1 4.126 0v9.9a2.063 2.063 0 0 1-2.063 2.063zm-352.73-4.09a2.063 2.063 0 0 1-2.063-2.063v-9.9a2.063 2.063 0 1 1 4.126 0v9.9a2.063 2.063 0 0 1-2.063 2.063zm352.73-15.71a2.063 2.063 0 0 1-2.063-2.063v-9.9a2.063 2.063 0 1 1 4.126 0v9.9a2.063 2.063 0 0 1-2.063 2.063zm-352.73-4.09a2.063 2.063 0 0 1-2.063-2.063v-9.9a2.063 2.063 0 1 1 4.126 0v9.9a2.063 2.063 0 0 1-2.063 2.063zm352.73-15.71a2.063 2.063 0 0 1-2.063-2.063v-9.9a2.063 2.063 0 1 1 4.126 0v9.9a2.063 2.063 0 0 1-2.063 2.063zm-352.73-4.09a2.063 2.063 0 0 1-2.063-2.063v-9.9a2.063 2.063 0 1 1 4.126 0v9.9a2.063 2.063 0 0 1-2.063 2.063zm352.73-15.71a2.063 2.063 0 0 1-2.063-2.063v-9.9a2.063 2.063 0 1 1 4.126 0v9.9a2.063 2.063 0 0 1-2.063 2.063zm-352.73-4.09a2.063 2.063 0 0 1-2.063-2.063v-9.9a2.063 2.063 0 1 1 4.126 0v9.9a2.063 2.063 0 0 1-2.063 2.063zm352.73-15.71a2.063 2.063 0 0 1-2.063-2.063v-9.9a2.063 2.063 0 1 1 4.126 0v9.9a2.063 2.063 0 0 1-2.063 2.063zm-352.73-4.09a2.063 2.063 0 0 1-2.063-2.063v-9.9a2.063 2.063 0 1 1 4.126 0v9.9a2.063 2.063 0 0 1-2.063 2.063zm352.73-15.71a2.063 2.063 0 0 1-2.063-2.063v-9.9a2.063 2.063 0 1 1 4.126 0v9.9a2.063 2.063 0 0 1-2.063 2.063zm-352.73-4.09a2.063 2.063 0 0 1-2.063-2.063v-9.9a2.063 2.063 0 1 1 4.126 0v9.9a2.063 2.063 0 0 1-2.063 2.063zm352.73-15.71a2.063 2.063 0 0 1-2.063-2.063v-9.9a2.063 2.063 0 1 1 4.126 0v9.9a2.063 2.063 0 0 1-2.063 2.063zm-352.73-4.09a2.063 2.063 0 0 1-2.063-2.063v-9.9a2.063 2.063 0 1 1 4.126 0v9.9a2.063 2.063 0 0 1-2.063 2.063zm352.73-15.711a2.063 2.063 0 0 1-2.063-2.063v-9.9a2.063 2.063 0 1 1 4.126 0v9.9c0 1.14-.923 2.063-2.063 2.063zm-352.73-4.089a2.063 2.063 0 0 1-2.063-2.063v-9.9a2.063 2.063 0 1 1 4.126 0v9.9a2.063 2.063 0 0 1-2.063 2.063zm352.73-15.711a2.063 2.063 0 0 1-2.063-2.063v-9.9a2.063 2.063 0 1 1 4.126 0v9.9c0 1.14-.923 2.063-2.063 2.063zm-352.73-4.089a2.063 2.063 0 0 1-2.063-2.063v-9.9a2.063 2.063 0 1 1 4.126 0v9.9a2.063 2.063 0 0 1-2.063 2.063zm352.73-15.711a2.063 2.063 0 0 1-2.063-2.063v-9.9a2.063 2.063 0 1 1 4.126 0v9.9c0 1.14-.923 2.063-2.063 2.063zm-352.73-4.089a2.063 2.063 0 0 1-2.063-2.063v-9.9a2.063 2.063 0 1 1 4.126 0v9.9a2.063 2.063 0 0 1-2.063 2.063zm352.73-15.711a2.063 2.063 0 0 1-2.063-2.063v-9.9a2.063 2.063 0 1 1 4.126 0v9.9c0 1.14-.923 2.063-2.063 2.063zm-352.73-4.089a2.063 2.063 0 0 1-2.063-2.063v-9.9a2.063 2.063 0 1 1 4.126 0v9.9a2.063 2.063 0 0 1-2.063 2.063zm-5.762-14.038h-9.9a2.063 2.063 0 1 1 0-4.126h9.9a2.063 2.063 0 1 1 0 4.126zm-19.8 0h-9.9a2.063 2.063 0 1 1 0-4.126h9.9a2.063 2.063 0 1 1 0 4.126zm-19.8 0h-9.9a2.063 2.063 0 1 1 0-4.126h9.9a2.063 2.063 0 1 1 0 4.126zm-19.8 0h-9.9a2.063 2.063 0 1 1 0-4.126h9.9a2.063 2.063 0 1 1 0 4.126zm-19.8 0h-9.9a2.063 2.063 0 1 1 0-4.126h9.9a2.063 2.063 0 1 1 0 4.126zm-19.8 0h-9.9a2.063 2.063 0 1 1 0-4.126h9.9a2.063 2.063 0 1 1 0 4.126zm-19.8 0h-9.9a2.063 2.063 0 1 1 0-4.126h9.9a2.063 2.063 0 1 1 0 4.126zm477.292-1.673a2.063 2.063 0 0 1-2.063-2.063v-9.9a2.063 2.063 0 1 1 4.126 0v9.9c0 1.14-.923 2.063-2.063 2.063zm0-19.8a2.063 2.063 0 0 1-2.063-2.063v-9.9a2.063 2.063 0 1 1 4.126 0v9.9c0 1.14-.923 2.063-2.063 2.063zm0-19.8a2.063 2.063 0 0 1-2.063-2.063v-2.597c0-1.139.923-2.063 2.063-2.063h7.303a2.063 2.063 0 1 1 0 4.126h-5.241v.534a2.06 2.06 0 0 1-2.062 2.063zm185.504-2.596h-9.9a2.063 2.063 0 1 1 0-4.126h9.9a2.063 2.063 0 1 1 0 4.126zm-19.8 0h-9.9a2.063 2.063 0 1 1 0-4.126h9.9a2.063 2.063 0 1 1 0 4.126zm-19.8 0h-9.9a2.063 2.063 0 1 1 0-4.126h9.9a2.063 2.063 0 1 1 0 4.126zm-19.8 0h-9.9a2.063 2.063 0 1 1 0-4.126h9.9a2.063 2.063 0 1 1 0 4.126zm-19.8 0h-9.9a2.063 2.063 0 1 1 0-4.126h9.9a2.063 2.063 0 1 1 0 4.126zm-19.8 0h-9.9a2.063 2.063 0 1 1 0-4.126h9.9a2.063 2.063 0 1 1 0 4.126zm-19.8 0h-9.9a2.063 2.063 0 1 1 0-4.126h9.9a2.063 2.063 0 1 1 0 4.126zm-19.8 0h-9.9a2.063 2.063 0 1 1 0-4.126h9.9a2.063 2.063 0 1 1 0 4.126zm-19.8 0h-9.9a2.063 2.063 0 1 1 0-4.126h9.9a2.063 2.063 0 1 1 0 4.126zM1422.906 117.105a2.063 2.063 0 0 0 2.063-2.063v-9.9a2.063 2.063 0 1 0-4.126 0v9.9c0 1.14.923 2.063 2.063 2.063zM1422.906 136.905a2.063 2.063 0 0 0 2.063-2.063v-9.9a2.063 2.063 0 1 0-4.126 0v9.9c0 1.14.923 2.063 2.063 2.063zM1422.906 97.305a2.063 2.063 0 0 0 2.063-2.063v-9.9a2.063 2.063 0 1 0-4.126 0v9.9c0 1.14.923 2.063 2.063 2.063zM1422.906 156.705a2.063 2.063 0 0 0 2.063-2.063v-9.9a2.063 2.063 0 1 0-4.126 0v9.9c0 1.14.923 2.063 2.063 2.063zM1422.906 77.505a2.063 2.063 0 0 0 2.063-2.063v-9.9a2.063 2.063 0 1 0-4.126 0v9.9c0 1.14.923 2.063 2.063 2.063zM1424.968 243.892v-.15a2.063 2.063 0 1 0-4.126 0v.15h4.126zM1422.906 176.505a2.063 2.063 0 0 0 2.063-2.063v-9.9a2.063 2.063 0 1 0-4.126 0v9.9c0 1.14.923 2.063 2.063 2.063zM1422.906 235.905a2.063 2.063 0 0 0 2.063-2.063v-9.9a2.063 2.063 0 1 0-4.126 0v9.9c0 1.14.923 2.063 2.063 2.063zM1422.906 216.105a2.063 2.063 0 0 0 2.063-2.063v-9.9a2.063 2.063 0 1 0-4.126 0v9.9c0 1.14.923 2.063 2.063 2.063zM1422.906 196.305a2.063 2.063 0 0 0 2.063-2.063v-9.9a2.063 2.063 0 1 0-4.126 0v9.9c0 1.14.923 2.063 2.063 2.063z"/><circle cx="552.577" cy="179.558" r="46.532" fill="#f7f6f1" transform="rotate(-1.621 552.474 179.034)"/><path fill="#4c98c4" d="M552.577 134.528c24.829 0 45.029 20.2 45.029 45.029 0 24.829-20.2 45.029-45.029 45.029-24.829 0-45.029-20.2-45.029-45.029-.001-24.829 20.199-45.029 45.029-45.029zm0-3.006c-26.529 0-48.035 21.506-48.035 48.035 0 26.529 21.506 48.035 48.035 48.035 26.529 0 48.035-21.506 48.035-48.035 0-26.528-21.506-48.035-48.035-48.035z"/><path fill="#4c98c4" d="M549.291 170.233a.095.095 0 0 1-.189 0c-1.869-20.112-28.524-19.107-28.524 2.275 0 21.673 27.386 36.807 28.586 37.46a.079.079 0 0 0 .081 0c1.2-.653 28.586-15.787 28.586-37.46 0-21.383-26.672-22.389-28.54-2.275z"/><path fill="#f7f6f1" d="M557.721 217.663a3.696 3.696 0 0 1-3.585-2.807l-5.81-23.422-1.37 5.103a3.698 3.698 0 0 1-3.57 2.738h-19.6a3.697 3.697 0 0 1 0-7.394h16.765l4.347-16.186a3.696 3.696 0 0 1 3.57-2.738h.036a3.697 3.697 0 0 1 3.552 2.807l4.181 16.853 4.872-46.664a3.696 3.696 0 0 1 3.639-3.312l.038-.001a3.697 3.697 0 0 1 3.667 3.238l5.75 46.002h7.65a3.697 3.697 0 1 1 0 7.394H570.94a3.698 3.698 0 0 1-3.668-3.238l-2.158-17.262-3.714 35.576a3.696 3.696 0 0 1-3.679 3.313z"/><path fill="#4c98c4" d="M557.722 215.55c-.723 0-1.36-.492-1.536-1.203l-7.78-31.359-3.491 13a1.583 1.583 0 0 1-1.53 1.173h-19.6a1.584 1.584 0 1 1 0-3.168h18.385l4.767-17.751c.188-.698.861-1.204 1.546-1.173a1.585 1.585 0 0 1 1.522 1.203l7.082 28.544 6.123-58.644c.083-.8.754-1.411 1.559-1.419h.016c.799 0 1.473.594 1.572 1.388l5.982 47.853h9.514a1.584 1.584 0 1 1 0 3.168H570.94a1.583 1.583 0 0 1-1.572-1.388l-4.442-35.535-5.627 53.892a1.585 1.585 0 0 1-1.577 1.419z"/><path fill="#f7f6f1" d="M1736.199 293.123c-26.395 0-47.869-21.473-47.869-47.868 0-26.395 21.474-47.869 47.869-47.869s47.869 21.474 47.869 47.869c-.001 26.395-21.475 47.868-47.869 47.868z"/><path fill="#4c98c4" d="M1736.199 199.057c25.474 0 46.198 20.724 46.198 46.198 0 25.473-20.724 46.198-46.198 46.198s-46.198-20.724-46.198-46.198 20.724-46.198 46.198-46.198zm0-3.342c-27.36 0-49.54 22.18-49.54 49.54s22.18 49.54 49.54 49.54 49.54-22.18 49.54-49.54-22.18-49.54-49.54-49.54z"/><path fill="#4c98c4" d="M1715.022 262.344a1.28 1.28 0 0 1-.519-.111c-7.113-3.185-12.453-4.705-15.391-1.767a1.271 1.271 0 0 1-1.797-1.797c4.408-4.41 11.718-1.671 18.227 1.243a1.272 1.272 0 0 1-.52 2.432zM1734.448 269.363c-3.807 0-8.21-1.768-12.298-3.603a1.27 1.27 0 1 1 1.041-2.319c7.174 3.22 12.558 4.761 15.503 1.817 3.719-3.719.025-11.616-3.547-19.253-3.944-8.43-8.02-17.147-3.041-22.126 4.399-4.401 11.672-1.684 18.14 1.207.641.286.928 1.038.641 1.679-.286.641-1.037.93-1.679.641-7.068-3.159-12.374-4.66-15.306-1.731-3.719 3.719-.025 11.616 3.547 19.253 3.944 8.43 8.02 17.147 3.041 22.126-1.663 1.664-3.745 2.309-6.042 2.309zM1769.236 234.575c-3.807 0-8.21-1.768-12.298-3.605a1.27 1.27 0 1 1 1.041-2.319c7.176 3.222 12.557 4.763 15.503 1.818a1.271 1.271 0 0 1 1.797 1.797c-1.664 1.665-3.745 2.309-6.043 2.309z"/><path fill="#4c98c4" d="M1722.197 284.822a1.271 1.271 0 0 1-.898-2.169c3.719-3.719.025-11.616-3.547-19.253-3.944-8.43-8.02-17.147-3.041-22.126 4.394-4.397 11.639-1.695 18.083 1.179a1.272 1.272 0 0 1-1.036 2.322c-6.089-2.717-12.15-4.803-15.25-1.704-3.719 3.719-.025 11.616 3.547 19.253 3.944 8.43 8.02 17.147 3.041 22.126a1.27 1.27 0 0 1-.899.372zM1751.868 251.952c-3.547 0-7.68-1.528-11.788-3.349a1.27 1.27 0 1 1 1.03-2.324c5.962 2.642 11.902 4.662 14.98 1.583 3.718-3.718.024-11.615-3.548-19.251-3.943-8.43-8.02-17.147-3.042-22.125a1.271 1.271 0 0 1 1.797 1.797c-3.718 3.718-.024 11.615 3.548 19.251 3.943 8.43 8.02 17.147 3.042 22.125-1.645 1.644-3.707 2.293-6.019 2.293z"/><path fill="#4c98c4" d="M1771.756 229.387a.641.641 0 0 1-.454-.188l-19.112-19.112a.642.642 0 1 1 .909-.908l19.112 19.112a.643.643 0 0 1-.455 1.096zM1763.856 229.169a.641.641 0 0 1-.454-.188l-10.993-10.993a.642.642 0 1 1 .909-.908l10.993 10.992a.645.645 0 0 1-.455 1.097zM1754.294 238.438a.645.645 0 0 1-.455-.188l-10.555-10.555a.643.643 0 0 1 .909-.909l10.555 10.555a.645.645 0 0 1-.454 1.097zM1753.945 246.97a.641.641 0 0 1-.454-.188l-18.736-18.737a.643.643 0 0 1 .909-.909l18.736 18.737a.643.643 0 0 1-.455 1.097zM1745.413 247.32a.641.641 0 0 1-.454-.188l-10.555-10.556a.645.645 0 0 1 0-.909.645.645 0 0 1 .909 0l10.555 10.556a.643.643 0 0 1-.455 1.097zM1737.196 255.392a.641.641 0 0 1-.454-.188l-10.555-10.556a.645.645 0 0 1 0-.909.645.645 0 0 1 .909 0l10.555 10.556a.643.643 0 0 1-.455 1.097zM1736.846 263.923a.641.641 0 0 1-.454-.188l-18.737-18.737a.643.643 0 0 1 .909-.909l18.737 18.737a.645.645 0 0 1-.455 1.097zM1728.315 264.273a.641.641 0 0 1-.454-.188l-10.556-10.555a.645.645 0 0 1 0-.909.645.645 0 0 1 .909 0l10.556 10.555a.643.643 0 0 1-.455 1.097zM1719.736 272.851a.641.641 0 0 1-.454-.188l-10.555-10.556a.643.643 0 0 1 .909-.909l10.555 10.556a.645.645 0 0 1-.455 1.097zM1719.386 281.383a.641.641 0 0 1-.454-.188l-18.737-18.737a.643.643 0 0 1 .909-.909l18.737 18.737a.645.645 0 0 1-.455 1.097z"/><path fill="#f7f6f1" d="M1686.14 457.961c-20.909 0-37.919-17.011-37.919-37.919 0-20.909 17.011-37.92 37.919-37.92 20.909 0 37.92 17.011 37.92 37.92-.001 20.909-17.012 37.919-37.92 37.919z"/><path fill="#4c98c4" d="M1686.14 383.347c20.233 0 36.695 16.461 36.695 36.695s-16.461 36.695-36.695 36.695-36.695-16.461-36.695-36.695 16.461-36.695 36.695-36.695zm0-2.449c-21.619 0-39.144 17.525-39.144 39.144s17.526 39.144 39.144 39.144 39.144-17.526 39.144-39.144c0-21.619-17.526-39.144-39.144-39.144z"/><path fill="#f7f6f1" d="M1671.1 442.579a11.098 11.098 0 0 1-5.067-2.979c-4.269-4.389-4.171-11.432.217-15.7l24.296-23.633a11.167 11.167 0 0 1 10.632-2.763 11.1 11.1 0 0 1 5.067 2.98 11.028 11.028 0 0 1 3.143 7.895 11.026 11.026 0 0 1-3.36 7.804l-24.296 23.633a11.16 11.16 0 0 1-10.632 2.763z"/><path fill="#4c98c4" d="M1700.904 398.53a10.018 10.018 0 0 1 4.581 2.695c3.86 3.969 3.772 10.338-.197 14.198l-24.296 23.633a10.098 10.098 0 0 1-9.617 2.498 10.018 10.018 0 0 1-4.581-2.695c-3.86-3.969-3.772-10.338.197-14.198l24.296-23.633a10.098 10.098 0 0 1 9.617-2.498zm.551-2.051a12.156 12.156 0 0 0-11.648 3.027l-24.296 23.633c-4.816 4.684-4.922 12.385-.238 17.201a12.157 12.157 0 0 0 17.201.238l24.296-23.633c4.816-4.684 4.922-12.385.238-17.201a12.114 12.114 0 0 0-5.553-3.265z"/><path fill="#4c98c4" d="M1684.189 421.44c-3.147-3.235-6.102-7.624-5.905-10.726l-12.774 12.425c-4.816 4.684-4.922 12.385-.238 17.201s12.385 4.922 17.201.238l13.196-12.835c-3.009.181-8.322-3.058-11.48-6.303z"/><path fill="#f7f6f1" d="M1667.497 436.256a2.654 2.654 0 0 1-1.864-1.828c-1.713-5.932 3.095-10.752 8.023-14.685a2.655 2.655 0 0 1 3.312 4.15c-4.975 3.97-6.898 6.766-6.234 9.063a2.655 2.655 0 0 1-3.237 3.3z"/><circle cx="1411.051" cy="119.71" r="46.196" fill="#f7f6f1"/><path fill="#4c98c4" d="M1411.051 167.556c-26.383 0-47.847-21.464-47.847-47.846 0-26.382 21.464-47.846 47.847-47.846s47.847 21.464 47.847 47.846c-.001 26.382-21.465 47.846-47.847 47.846zm0-92.393c-24.563 0-44.547 19.983-44.547 44.546s19.984 44.546 44.547 44.546c24.563 0 44.547-19.983 44.547-44.546-.001-24.562-19.984-44.546-44.547-44.546z"/><path fill="#f7f6f1" d="M1421.47 141.535h-20.839c-12.206 0-22.102-9.895-22.102-22.102s9.895-22.102 22.102-22.102h20.839c12.207 0 22.102 9.895 22.102 22.102 0 12.206-9.895 22.102-22.102 22.102z"/><path fill="#4c98c4" d="M1433.092 142.772h-44.083c-6.461 0-11.717-5.257-11.717-11.718V107.81c0-6.461 5.256-11.717 11.717-11.717h44.083c6.461 0 11.717 5.256 11.717 11.717v23.244c0 6.462-5.256 11.718-11.717 11.718zm-44.083-44.204c-5.096 0-9.242 4.146-9.242 9.242v23.244c0 5.096 4.146 9.243 9.242 9.243h44.083c5.096 0 9.242-4.146 9.242-9.243V107.81c0-5.096-4.146-9.242-9.242-9.242h-44.083z"/><circle cx="1411.051" cy="119.433" r="13.138" fill="#f7f6f1" transform="rotate(-20.463 1411.165 119.418)"/><path fill="#4c98c4" d="M1411.051 133.602c-7.813 0-14.17-6.356-14.17-14.17 0-7.813 6.356-14.169 14.17-14.169 7.813 0 14.169 6.356 14.169 14.169 0 7.814-6.356 14.17-14.169 14.17zm0-26.276c-6.676 0-12.107 5.431-12.107 12.107 0 6.676 5.431 12.107 12.107 12.107s12.107-5.431 12.107-12.107c-.001-6.676-5.432-12.107-12.107-12.107z"/><path fill="#4c98c4" d="M1408.489 112.375h5.123v14.115h-5.123z"/><path fill="#4c98c4" d="M1408.489 112.375h5.123v14.115h-5.123z" transform="rotate(90 1411.05 119.433)"/><path fill="#4c98c4" d="M1425.266 90.438a2.562 2.562 0 0 1-2.562 2.562h-23.307a2.562 2.562 0 1 1 0-5.124h23.307a2.563 2.563 0 0 1 2.562 2.562z"/><circle cx="1540.971" cy="231.098" r="46.196" fill="#f7f6f1"/><path fill="#4c98c4" d="M1540.971 278.944c-26.383 0-47.846-21.464-47.846-47.846 0-26.383 21.464-47.847 47.846-47.847s47.847 21.464 47.847 47.847c0 26.382-21.464 47.846-47.847 47.846zm0-92.393c-24.563 0-44.546 19.984-44.546 44.547s19.983 44.546 44.546 44.546 44.547-19.983 44.547-44.546-19.984-44.547-44.547-44.547z"/><path fill="#f7f6f1" d="M1532.058 211.009h20.87c12.224 0 22.134 9.91 22.134 22.134s-9.91 22.134-22.134 22.134h-20.87c-12.224 0-22.134-9.91-22.134-22.134.001-12.224 9.91-22.134 22.134-22.134z"/><path fill="#4c98c4" d="M1564.567 256.514h-44.147c-6.469 0-11.733-5.263-11.733-11.732v-23.278c0-6.469 5.263-11.733 11.733-11.733h44.147c6.469 0 11.733 5.263 11.733 11.733v23.278c-.001 6.47-5.264 11.732-11.733 11.732zm-44.147-44.268c-5.105 0-9.257 4.153-9.257 9.258v23.278c0 5.105 4.153 9.257 9.257 9.257h44.147c5.105 0 9.258-4.152 9.258-9.257v-23.278c0-5.105-4.153-9.258-9.258-9.258h-44.147zM1528.258 262.179a2.565 2.565 0 0 1 2.565-2.565h23.341a2.565 2.565 0 1 1 0 5.13h-23.341a2.564 2.564 0 0 1-2.565-2.565z"/><path fill="#f7f6f1" d="M1550.503 259.95a3.037 3.037 0 0 1-2.946-2.307l-4.775-19.25-1.126 4.194a3.038 3.038 0 0 1-2.934 2.25h-22.683a3.038 3.038 0 1 1 0-6.076h20.353l3.573-13.303a3.039 3.039 0 0 1 2.934-2.251h.029a3.038 3.038 0 0 1 2.919 2.307l3.436 13.851 4.004-38.352a3.037 3.037 0 0 1 2.991-2.722l.031-.001c1.53 0 2.823 1.14 3.014 2.661l4.726 37.809h6.287a3.038 3.038 0 1 1 0 6.076h-8.969a3.04 3.04 0 0 1-3.015-2.661l-1.773-14.187-3.052 29.239a3.038 3.038 0 0 1-3.024 2.723z"/><path fill="#4c98c4" d="M1550.504 258.213a1.301 1.301 0 0 1-1.263-.989l-6.394-25.774-2.869 10.685a1.302 1.302 0 0 1-1.258.965h-22.683a1.302 1.302 0 0 1 0-2.604h21.685l3.918-14.589c.154-.573.708-.989 1.271-.964a1.3 1.3 0 0 1 1.25.989l5.82 23.459 5.032-48.199a1.3 1.3 0 0 1 1.281-1.166h.014c.656 0 1.21.488 1.292 1.141l4.916 39.329h7.82a1.302 1.302 0 0 1 0 2.604h-8.969a1.302 1.302 0 0 1-1.292-1.141l-3.651-29.206-4.625 44.293a1.302 1.302 0 0 1-1.295 1.167z"/><circle cx="190.477" cy="218.486" r="46.196" fill="#f7f6f1"/><path fill="#4c98c4" d="M190.476 266.333c-26.383 0-47.847-21.464-47.847-47.846s21.464-47.846 47.847-47.846 47.847 21.464 47.847 47.846-21.464 47.846-47.847 47.846zm0-92.393c-24.563 0-44.547 19.983-44.547 44.546s19.984 44.546 44.547 44.546 44.547-19.983 44.547-44.546-19.983-44.546-44.547-44.546z"/><path fill="#4c98c4" d="M191.014 249.323c-14.648 0-26.565-11.917-26.565-26.565v-21.145c0-6.218 5.059-11.276 11.277-11.276h6.852v3.3h-6.852c-4.398 0-7.977 3.578-7.977 7.976v21.145c0 12.828 10.437 23.265 23.265 23.265 12.828 0 23.265-10.437 23.265-23.265v-21.145c0-4.398-3.578-7.976-7.976-7.976h-6.906v-3.3h6.906c6.218 0 11.276 5.059 11.276 11.276v21.145c0 14.648-11.917 26.565-26.565 26.565z"/><path fill="#4c98c4" d="M218.176 276.485c-15.887 0-28.812-12.925-28.812-28.812h3.3c0 14.067 11.444 25.512 25.512 25.512 14.067 0 25.512-11.445 25.512-25.512h3.3c0 15.887-12.925 28.812-28.812 28.812zM179.61 191.986a2.968 2.968 0 1 1 5.936 0 2.968 2.968 0 0 1-5.936 0zM196.552 191.986a2.968 2.968 0 1 1 5.936 0 2.968 2.968 0 0 1-5.936 0z"/><circle cx="245.338" cy="247.673" r="9.709" fill="#f7f6f1"/><path fill="#4c98c4" d="M245.338 259.032c-6.263 0-11.359-5.096-11.359-11.359s5.096-11.359 11.359-11.359c6.264 0 11.359 5.096 11.359 11.359s-5.096 11.359-11.359 11.359zm0-19.418c-4.444 0-8.059 3.616-8.059 8.059 0 4.444 3.616 8.059 8.059 8.059 4.444 0 8.059-3.615 8.059-8.059 0-4.444-3.615-8.059-8.059-8.059z"/><path fill="#f7f6f1" d="M249.398 247.673a4.06 4.06 0 1 1-8.12 0 4.06 4.06 0 0 1 8.12 0z"/><path fill="#4c98c4" d="M245.338 253.382a5.716 5.716 0 0 1-5.709-5.71 5.715 5.715 0 0 1 5.709-5.709 5.716 5.716 0 0 1 5.71 5.709 5.717 5.717 0 0 1-5.71 5.71zm0-8.119a2.412 2.412 0 0 0-2.409 2.409 2.412 2.412 0 0 0 2.409 2.41 2.413 2.413 0 0 0 2.41-2.41 2.414 2.414 0 0 0-2.41-2.409z"/><circle cx="193.932" cy="523.053" r="46.196" fill="#f7f6f1"/><path fill="#4c98c4" d="M193.932 570.898c-26.383 0-47.846-21.464-47.846-47.846 0-26.382 21.464-47.846 47.846-47.846 26.383 0 47.847 21.464 47.847 47.846 0 26.383-21.464 47.846-47.847 47.846zm0-92.392c-24.563 0-44.546 19.983-44.546 44.546s19.983 44.546 44.546 44.546 44.547-19.983 44.547-44.546-19.984-44.546-44.547-44.546z"/><path fill="#4c98c4" d="m191.476 539.743-13.722-2.385-1.544-13.843 29.192-27.461 15.266 16.228-29.192 27.461zm-11.469-4.506 10.674 1.856 26.488-24.918-11.875-12.623-26.488 24.918 1.201 10.767z"/><path fill="#f7f6f1" d="m203.959 496.326 16.348 17.378-16.348-17.378z"/><path fill="#4c98c4" d="M220.307 515.766a2.06 2.06 0 0 1-1.503-.649l-16.348-17.377a2.062 2.062 0 1 1 3.004-2.827l16.348 17.377a2.062 2.062 0 0 1-1.501 3.476z"/><path fill="#f7f6f1" d="m211.339 489.383 16.348 17.378-16.348-17.378z"/><path fill="#4c98c4" d="M227.688 508.823a2.055 2.055 0 0 1-1.503-.649l-16.348-17.377a2.062 2.062 0 1 1 3.004-2.827l16.348 17.377a2.062 2.062 0 0 1-1.501 3.476z"/><path fill="#4c98c4" d="M211.099 496.776h10.079v9.12h-10.079z" transform="rotate(46.75 216.131 501.3)"/><path fill="#4c98c4" d="M165.803 549.837a1.236 1.236 0 0 1-.849-2.139l13.078-12.302a1.237 1.237 0 1 1 1.695 1.803l-13.078 12.303a1.228 1.228 0 0 1-.846.335zM207.834 510.821c-.329 0-.658-.13-.902-.389l-5.097-5.418a1.238 1.238 0 1 1 1.802-1.697l5.097 5.418a1.238 1.238 0 0 1-.9 2.086zM202.913 515.449c-.33 0-.658-.13-.902-.39l-5.097-5.418a1.237 1.237 0 0 1 1.803-1.695l5.097 5.418a1.237 1.237 0 0 1-.901 2.085zM197.993 520.078c-.329 0-.658-.13-.902-.39l-5.097-5.418a1.237 1.237 0 0 1 1.803-1.695l5.097 5.418a1.238 1.238 0 0 1-.901 2.085zM193.073 524.707c-.329 0-.658-.13-.902-.39l-5.098-5.419a1.237 1.237 0 1 1 1.803-1.695l5.097 5.419a1.237 1.237 0 0 1-.9 2.085zM188.152 529.336c-.329 0-.658-.13-.902-.39l-5.097-5.418a1.237 1.237 0 0 1 1.803-1.695l5.097 5.418a1.237 1.237 0 0 1-.901 2.085z"/><circle cx="1295.912" cy="102.164" r="8.581" fill="#97c4de" transform="rotate(-34.31 1295.956 102.116)"/><circle cx="213.912" cy="634.164" r="8.581" fill="#97c4de" transform="rotate(-34.381 213.904 634.147)"/><path fill="#f7f6f1" d="M647.929 563.219c-.02 7.878-6.268 14.247-13.956 14.228-7.686-.019-13.901-6.42-13.882-14.298.02-7.877 6.267-14.246 13.954-14.227 7.689.019 13.904 6.42 13.884 14.297zM690.155 563.219c-.02 7.878-6.268 14.247-13.956 14.228-7.687-.019-13.901-6.42-13.882-14.298.02-7.877 6.267-14.246 13.954-14.227 7.688.019 13.903 6.42 13.884 14.297z"/><path fill="#2e6c9e" d="M875.307 806.956h198.905c-18.172-42.623-20.279-87.403-14.399-133.735-56.702-7.89-113.405-7.89-170.107 0 5.88 46.331 3.773 91.111-14.399 133.735z"/><path fill="#2e6c9e" d="M1135.531 832.597H813.988v-23.38c0-10.002 8.108-18.11 18.11-18.11h285.324c10.002 0 18.11 8.108 18.11 18.11v23.38z"/><path fill="#4c98c4" d="M1310.557 708.128H638.962c-6.449 0-11.677-5.228-11.677-11.677V242.677c0-6.449 5.228-11.677 11.677-11.677h671.594c6.449 0 11.677 5.228 11.677 11.677v453.775c0 6.448-5.228 11.676-11.676 11.676z"/><path fill="#fff" d="M653.005 263.112h649.31v367.182h-649.31z"/><circle cx="1139.111" cy="456.311" r="118.974" fill="#fff"/><path fill="#d66f97" d="M1139.111 577.245c-32.303 0-62.672-12.579-85.514-35.421-22.841-22.841-35.421-53.21-35.421-85.513 0-32.303 12.58-62.672 35.421-85.513 22.842-22.841 53.211-35.421 85.514-35.421 32.302 0 62.671 12.58 85.513 35.421 22.841 22.842 35.421 53.211 35.421 85.513 0 32.302-12.579 62.672-35.421 85.513-22.841 22.842-53.21 35.421-85.513 35.421zm0-237.947c-64.522 0-117.014 52.492-117.014 117.013s52.492 117.013 117.014 117.013c64.521 0 117.013-52.492 117.013-117.013s-52.492-117.013-117.013-117.013z"/><path fill="#bf323f" d="M1138.865 372.492c2.714.445 5.072 2.842 5.271 5.363.425 5.447.643 8.17 1.082 13.616-1.574-.096-3.104-.065-4.476.254-.016.013-.026.023-.047.023-1.951-.3-3.733-.355-5.219-.062-.474-6.175-.706-9.263-1.163-15.438-.189-2.518 1.862-4.196 4.552-3.756zM1121.944 378.632c-2.148 1.507-3.302 4.187-2.577 5.996a2760.59 2760.59 0 0 1 3.914 9.768c1.304-.764 2.615-1.42 3.895-1.812.019.002.03.004.048-.005 1.552-1.07 3.047-1.897 4.413-2.356a2965.936 2965.936 0 0 0-4.491-11.047c-.733-1.802-3.072-2.037-5.202-.544zM1158.514 392.87a29.209 29.209 0 0 0-7.689-2.482c.793-5.592 2.054-13.181 2.061-13.25.303-1.784 2.251-2.662 4.364-1.957 2.103.702 3.599 2.717 3.299 4.512l.005.002s-.602 3.69-1.237 7.77a388.764 388.764 0 0 0-.803 5.405z"/><path fill="#bf323f" d="M1164.348 404.929a15.04 15.04 0 0 0-.004-.973c-.386-10.206-11.107-18.246-23.946-17.96s-22.935 8.792-22.55 18.997c.012.326.036.65.069.972l46.431-1.036z"/><path fill="#d14754" d="M1192.416 387.419c-.637-.328-1.304-.703-2.069-.798-18.043-2.229-57.634 12.852-56.989 36.198.079 2.878.801 5.288 1.977 7.093 2.082 3.201 5.851 4.923 9.316 2.254 12.09-11.998 23.784-22.262 40.573-27.134.726-.211 10.599-2.367 10.882-1.366.396-5.043-1.217-12.949-3.69-16.247z"/><path fill="#bf323f" d="M1113.03 413.957c.398-4.244-.167-8.408-.842-12.465-.936-5.623-3.624-8.911-2.728-14.971.898-6.069 1.985-11.917 2.543-17.991.138-1.502-1.003-2.827-2.535-2.964l-6.135-.547c-2.537-.226-4.832 1.491-5.269 3.951-1.292 7.279-2.098 14.527-3.998 21.617a203.595 203.595 0 0 1-2.178 9.579c-2.401 9.405-5.03 18.341-6.527 27.586.555 6.107 2.463 11.602 6.606 15.256 7.855 6.926 15.336-1.085 18.739-11.579 1.119-3.451 1.545-7.484 1.852-11.418.162-2.079.291-4.131.472-6.054z"/><path fill="#d14754" d="M1162.603 399.276c-6.948-3.194-14.643-4.981-22.262-5.106-13.893-.228-27.24 4.877-39.505 11.072-26.101 13.183-24.079 81.675-.088 105.056 12.082 11.774 40.865 37.482 59.636 27.825 12.452-6.406 13.078-20.051 15.009-32.243 2.233-14.095 4.565-27.689 8.634-41.392 3.753-12.639 7.27-25.908 3.213-38.953-3.679-11.831-13.135-20.972-24.637-26.259z"/><path fill="#bf323f" d="M1097.725 474.415a1.512 1.512 0 0 1-.134-3.015c10.133-.915 20.086-6.719 30.427-17.743 1.96-2.09 4.007-4.614 6.173-7.287 7.715-9.515 16.458-20.3 28.496-21.314 12.976-1.096 17.049 7.29 17.215 7.647a1.51 1.51 0 1 1-2.737 1.279c-.131-.271-3.431-6.826-14.225-5.915-10.756.905-19.068 11.159-26.402 20.206-2.202 2.716-4.282 5.281-6.317 7.451-10.87 11.588-21.454 17.7-32.358 18.684a1.072 1.072 0 0 1-.138.007z"/><path fill="#bf323f" d="M1172.602 480.387c-.069 0-.14-.005-.211-.015-18.963-2.647-33.629-14.886-38.273-31.94a1.51 1.51 0 1 1 2.916-.793c4.322 15.868 18.03 27.264 35.776 29.741a1.51 1.51 0 0 1-.208 3.007z"/><path fill="#bf323f" d="M1125.524 498.175a1.51 1.51 0 0 1-1.491-1.766c3.084-17.971 6.687-22.22 20.757-32.587a1.51 1.51 0 1 1 1.793 2.432c-13.696 10.091-16.637 13.559-19.571 30.665a1.513 1.513 0 0 1-1.488 1.256zM1110.34 412.706c-4.171 0-7.988-.83-10.24-2.964a1.511 1.511 0 0 1 2.078-2.192c4.163 3.946 18.17 1.859 23.939-1.59 1.466-.876 2.944-1.872 4.375-2.834 4.368-2.941 8.887-5.982 14.325-6.655a1.505 1.505 0 0 1 1.685 1.314 1.51 1.51 0 0 1-1.313 1.685c-4.722.584-8.748 3.294-13.01 6.163-1.463.985-2.976 2.003-4.511 2.921-3.667 2.191-10.914 4.152-17.328 4.152z"/><path fill="#bf323f" d="M1092.901 437.566a1.51 1.51 0 0 1-1.463-1.892c1.453-5.558 6.306-8.848 10.997-12.03 4.978-3.375 9.275-6.29 8.891-11.261a1.51 1.51 0 0 1 1.389-1.622 1.503 1.503 0 0 1 1.623 1.389c.521 6.72-4.933 10.419-10.206 13.995-4.23 2.868-8.604 5.835-9.77 10.293a1.511 1.511 0 0 1-1.461 1.128z"/><path fill="#bf323f" d="M1103.367 442.843a1.511 1.511 0 0 1-1.338-2.21c4.201-8.049 5.732-14.18 4.68-18.741a1.51 1.51 0 1 1 2.944-.679c1.628 7.051-2.043 15.259-4.945 20.819-.27.515-.797.811-1.341.811zM1159.664 459.05a1.51 1.51 0 0 1-1.498-1.336c-.881-7.559-4.031-15-8.873-20.951a1.51 1.51 0 1 1 2.344-1.906c5.2 6.391 8.584 14.385 9.529 22.507a1.51 1.51 0 0 1-1.502 1.686zM1140.205 492.609a1.509 1.509 0 0 1-1.479-1.218c-.925-4.675-4.44-8.843-8.957-10.617a1.51 1.51 0 1 1 1.105-2.811c5.45 2.141 9.696 7.182 10.814 12.843a1.51 1.51 0 0 1-1.483 1.803z"/><path fill="#fff" d="M693.677 319.344c-15.703.063-28.367 12.704-28.257 28.206l1.401 196.55c0 12.737 10.459 23.062 23.361 23.062 0 0 187.76.53 263.724.39 17.341-.032 31.404-13.868 31.503-30.987l1.135-195.236c0-12.734-10.457-23.058-23.357-23.058l-269.51 1.073z"/><path fill="#5e7783" d="M937.525 553.142H714.438c-14.351 0-25.985-11.634-25.985-25.985V358.69c0-14.351 11.634-25.985 25.985-25.985h223.086c14.351 0 25.985 11.634 25.985 25.985v168.467c.001 14.351-11.633 25.985-25.984 25.985z"/><path fill="#bde2ec" d="M947.508 555.605H704.455c-10.182 0-18.465-8.283-18.465-18.465V348.706c0-10.182 8.283-18.465 18.465-18.465h243.053c10.182 0 18.465 8.283 18.465 18.465V537.14c0 10.182-8.283 18.465-18.465 18.465zM704.455 335.168c-7.465 0-13.539 6.074-13.539 13.539V537.14c0 7.465 6.074 13.539 13.539 13.539h243.053c7.465 0 13.539-6.074 13.539-13.539V348.706c0-7.465-6.073-13.539-13.539-13.539H704.455z"/><path fill="#73e5c8" d="m777.789 502.345-39.272-116.608-22.941 46.248h-27.122v-5.402h23.771l27.249-54.933 35.629 105.788 9.722-88.121 16.204 43.248 3.972-23.605 15.967 19.039 5.174-8.244 1.86 3.5c.864.541 6.279 3.328 25.964 3.328 15.557 0 26.03-5.753 32.96-9.56 4.069-2.235 7.013-3.854 9.747-3.737 6.259.261 11.799 10.602 14.155 15.702h52.682v5.402h-56.216l-.703-1.637c-2.822-6.572-7.682-13.967-10.143-14.069-1.243-.068-3.996 1.466-6.921 3.073-7.414 4.073-18.618 10.228-35.561 10.228-15.851 0-23.455-1.737-27.073-3.263l-5.293 8.436-13.214-15.755-5.365 31.878-15.31-40.862-9.922 89.926zM943.535 481.005h5.402v24.038h-5.402z"/><path fill="#73e5c8" d="M871.328 515.425h-2.701V455.93h78.96v25.075h-2.701v-22.373h-73.558z"/><path fill="#73e5c8" d="M879.671 476.083h2.701v24.587h-2.701zM891.191 487.01h2.701v19.398h-2.701zM903.505 481.005h2.701v28.405h-2.701zM913.038 489.893h2.701v24.985h-2.701zM923.763 479.364h2.701v21.305h-2.701zM934.885 491.109h2.701v24.864h-2.701z"/><path fill="#4c98c4" d="M449.438 696.315c-9.173-19.788-46.579-.006-67.081-41.209-4.205-8.45 28.066-27.3 26.267-37.68-.843-4.862-36.272-.739-36.985-5.823-8.367-59.655 16.339-103.832 1.106-137.898-5.331-11.921 20.697-15.225 16.652-24.536-1.387-3.193-26.804 6.289-29.414 3.894-15.24-13.984-47.626-40.071-54.627-57.072-5.128-12.452-5.011-33.286-4.28-53.031.159-4.298 26.92-6.194 27.09-10.292.563-13.6-27.266-1.12-28.859-7.856-4.394-18.572-38.976-85.567-9.3-100.799 22.158-11.373 91.469 71.728 101.342 94.785 1.134 2.65-18.73 29.202-15.603 31.02 2.745 1.595 29.658-22.595 32.814-20.855 24.421 13.465 58.876 31.171 68.201 51.66 11.909 26.166-1.797 79.64 2.984 96.408 7.457 26.152 51.076 71.101 63.486 120.19.762 3.016-37.212-.272-36.701 2.771.893 5.315 39.997 16.988 39.993 22.359-.003 3.901-71.415-20.735-71.967-16.821-.732 5.194 69.175 38.942 67.345 44.132-13.948 39.566-48.288 29.239-63.816 30.303-15.526 1.064-28.647 16.35-28.647 16.35z"/><path fill="#97c4de" d="M438.928 633.231a121.818 121.818 0 0 1 6.107-2.021c10.394 69.204 14.777 132.563 14.139 173.383-.083 5.274-8.057 5.144-7.974-.125.693-44.899-3.22-106.129-12.272-171.237z"/><path fill="#f7f6f1" d="M317.77 293.299c2.647-2.826 83.465 63.307 125.21 324.655-2.006.58-4.001 1.211-5.985 1.886-14.207-95.505-48.887-257.67-119.13-324.63-.62-.591-.566-1.409-.095-1.911z"/><path fill="#f7f6f1" d="M471.552 715.085c7.471-14.693 35.178 1.273 51.792-29.282 3.407-6.267-20.448-21.388-18.804-29.177.77-3.649 27.414.437 28.092-3.383 7.955-44.823-9.492-78.865 2.947-104.175 4.353-8.857-15.213-12.066-11.904-18.987 1.135-2.373 20.071 5.485 22.108 3.747 11.893-10.144 37.067-28.957 42.821-41.605 4.214-9.263 4.698-25.001 4.687-39.933-.002-3.251-20.161-5.416-20.177-8.515-.052-10.287 20.623-.098 22.011-5.142 3.828-13.905 31.783-63.554 9.788-75.871-16.422-9.197-71.047 51.663-79.136 68.805-.93 1.97 13.345 22.568 10.933 23.855-2.117 1.129-21.779-17.878-24.21-16.65-18.813 9.499-45.32 21.927-52.924 37.145-9.712 19.435-.827 60.196-4.898 72.728-6.349 19.546-40.524 52.297-51.243 89.03-.659 2.257 28.111.815 27.641 3.099-.82 3.99-30.673 11.732-30.817 15.789-.105 2.946 54.504-13.701 54.813-10.73.411 3.943-53.311 27.513-52.071 31.483 9.449 30.264 35.667 23.406 47.365 24.635 11.696 1.23 21.186 13.134 21.186 13.134z"/><path fill="#97c4de" d="M471.529 717.042a1.96 1.96 0 0 1-1.507-.736c-.09-.112-9.137-11.28-19.863-12.407-1.945-.204-4.347-.171-7.131-.133-13.417.181-33.678.46-41.899-25.866-.967-3.097 2.92-5.705 27.725-18.611 6.992-3.638 15.84-8.241 20.763-11.286-5.551 1.061-14.766 3.367-22.074 5.196-22.782 5.701-26.77 6.412-28.431 5.067a2.163 2.163 0 0 1-.812-1.772c.109-3.072 4.719-5.146 16.892-9.865 3.775-1.464 8.947-3.469 11.879-5.004-2.763-.242-6.911-.364-9.999-.454-11.122-.327-14.065-.577-15.178-2.107a2.216 2.216 0 0 1-.342-1.937c6.397-21.923 21.207-42.701 33.106-59.394 8.388-11.767 15.631-21.929 18.154-29.693 1.512-4.653 1.068-14.334.598-24.583-.778-16.999-1.662-36.266 4.41-48.415 7.359-14.728 30.841-26.504 49.71-35.967 1.392-.698 2.756-1.382 4.082-2.051 2.158-1.087 4.904.843 14.823 8.908 2.378 1.932 5.31 4.317 7.479 5.898-1.273-2.644-3.374-6.33-4.828-8.883-4.886-8.576-5.861-10.571-5.084-12.216 6.921-14.669 48.667-62.615 71.433-69.903 4.237-1.354 7.748-1.279 10.431.223 18.856 10.56 4.575 44.873-3.959 65.374-2.21 5.312-4.12 9.899-4.898 12.727-1.035 3.754-5.891 3.084-11.035 2.376-3.823-.527-8.583-1.183-10.237.264-.25.219-.572.607-.651 1.503 1.238.832 5.526 1.967 8.432 2.737 7.704 2.04 11.724 3.244 11.727 6.256.011 15.587-.57 31.311-4.862 40.745-4.882 10.73-22.653 25.279-35.629 35.902-2.841 2.327-5.525 4.524-7.704 6.383-1.632 1.391-4.587.72-12.611-1.553-3.008-.852-7.374-2.087-9.168-2.184-.036 1.293 1.632 2.697 5.118 5.136 4.219 2.953 9.997 6.998 6.943 13.213-6.242 12.7-4.612 28.119-2.725 45.974 1.782 16.861 3.802 35.972-.05 57.678-.607 3.418-5.709 3.498-16.199 3.37-4.114-.052-10.198-.131-11.951.523-.005 2.973 5.228 8.407 9.475 12.817 6.214 6.453 11.582 12.026 9.178 16.446-10.275 18.897-24.544 20.815-36.01 22.356-7.352.988-13.158 1.768-15.755 6.878a1.959 1.959 0 0 1-1.766 1.07zm-24.493-17.215c1.266.015 2.456.064 3.534.178 9.439.992 17.343 8.241 20.741 11.848 3.885-4.847 10.387-5.721 17.221-6.639 11.14-1.497 23.766-3.195 33.091-20.345 1.032-1.899-4.74-7.892-8.56-11.858-5.898-6.125-11.47-11.91-10.441-16.789.683-3.234 5.63-3.288 15.788-3.185 4.043.067 10.653.137 12.372-.593 3.647-20.975 1.674-39.643-.068-56.126-1.951-18.458-3.636-34.399 3.103-48.113 1.356-2.759-.562-4.698-5.673-8.276-3.789-2.653-8.505-5.953-6.239-10.693 1.249-2.611 5.074-1.652 13.602.761 3.151.892 7.834 2.216 9.247 2.133 2.163-1.838 4.768-3.971 7.52-6.224 12.677-10.379 30.041-24.595 34.545-34.493 3.944-8.669 4.51-23.683 4.51-38.682-1.213-.898-5.928-2.147-8.811-2.91-7.077-1.875-11.349-3.006-11.365-6.036-.01-2.101.664-3.763 2.006-4.938 2.998-2.627 8.263-1.901 13.352-1.199 2.2.304 5.836.806 6.757.342.859-3.062 2.701-7.486 5.025-13.069 8.032-19.297 21.474-51.595 5.661-60.451-1.699-.952-4.162-.922-7.323.09-21.256 6.802-61.746 53.066-68.885 67.43.439 1.461 2.91 5.797 4.745 9.018 4.981 8.743 6.948 12.517 6.333 14.643a2.447 2.447 0 0 1-1.195 1.499c-1.98 1.061-4.2-.486-13.663-8.179-3.707-3.014-9.209-7.487-11.044-8.22-1.183.597-2.397 1.206-3.634 1.826-18.35 9.202-41.187 20.654-47.963 34.216-5.616 11.237-4.72 30.781-4 46.484.508 11.077.945 20.643-.787 25.973-2.708 8.336-10.113 18.726-18.688 30.756-11.437 16.045-25.601 35.915-32.058 56.633 2.44.353 7.694.508 11.396.617 11.207.329 14.179.575 15.359 2.067.416.527.579 1.2.446 1.847-.563 2.739-4.94 4.673-16.384 9.112-2.771 1.074-6.271 2.431-9.148 3.7 5.352-1.133 12.954-3.035 19.132-4.581 23.006-5.756 27.693-6.606 29.482-5.354.534.374.878.951.944 1.586.29 2.791-3.404 5.192-26.356 17.134-9.887 5.143-23.264 12.104-25.589 14.609 7.47 22.893 25.044 22.653 37.901 22.475a151.37 151.37 0 0 1 4.061-.024z"/><path fill="#97c4de" d="m460.952 796.555.142-4.565c.123-3.014.296-7.415.651-12.99.683-11.161 2.026-27.063 4.363-46.042 2.324-18.98 5.637-41.04 10.013-64.522 4.365-23.482 9.801-48.386 16.262-73.032 6.448-24.646 13.951-49.031 22.276-71.438 4.183-11.194 8.517-21.913 13.043-31.898 4.522-9.986 9.148-19.276 13.827-27.633s9.371-15.798 13.867-22.164c4.49-6.371 8.789-11.657 12.537-15.825 1.852-2.104 3.623-3.878 5.143-5.439 1.554-1.529 2.916-2.789 4.009-3.821l3.481-3.029a1.096 1.096 0 0 1 1.449 1.646l-3.415 3.037c-1.06 1.025-2.383 2.274-3.891 3.791-1.477 1.549-3.196 3.308-4.996 5.399-3.641 4.139-7.82 9.391-12.186 15.729-4.371 6.333-8.932 13.741-13.477 22.067-4.544 8.327-9.033 17.588-13.414 27.547-4.385 9.958-8.576 20.653-12.613 31.823-8.034 22.359-15.238 46.699-21.39 71.297-6.166 24.597-11.31 49.448-15.401 72.865-4.103 23.417-7.161 45.4-9.268 64.286-2.119 18.886-3.28 34.672-3.836 45.715-.293 5.526-.415 9.858-.504 12.797l-.093 4.566a3.292 3.292 0 1 1-6.583-.133l.004-.034z"/><path fill="#4c98c4" d="m513.697 751.393-3.592 6.765s-2.426 71.222-20.353 71.222h-65.254c-17.706 0-20.353-70.324-20.353-70.324l-3.592-7.664a2.873 2.873 0 0 1 2.873-2.873h107.398a2.875 2.875 0 0 1 2.873 2.874z"/><path fill="#4c98c4" d="m469.624 751.393-3.592 6.765s5.5 71.222-13.573 71.222h-27.961c-17.706 0-20.353-70.324-20.353-70.324l-3.592-7.664a2.873 2.873 0 0 1 2.873-2.873h63.325a2.875 2.875 0 0 1 2.873 2.874zM775.853 889.222c10.873-14.851 37.805 9.737 42.302 26.661-24.899 6.725-56.994-6.593-42.302-26.661z"/><path fill="#f7f6f1" d="M773.313 891.293a.483.483 0 0 1 .648-.178l43.456 23.809a.484.484 0 0 1-.464.848l-43.455-23.809a.484.484 0 0 1-.185-.67z"/><path fill="#f7f6f1" d="M808.947 910.817a.484.484 0 0 1 .875.095l1.876 5.703a.484.484 0 0 1-.918.302l-1.875-5.703a.477.477 0 0 1 .042-.397zM804.396 908.324a.486.486 0 0 1 .294-.222l8.522-2.226a.483.483 0 0 1 .245.935l-8.522 2.226a.483.483 0 0 1-.539-.713zM798.659 905.209a.483.483 0 0 1 .899.207l.908 11.611a.484.484 0 0 1-.964.076l-.908-11.611a.48.48 0 0 1 .065-.283zM791.531 901.274a.48.48 0 0 1 .225-.198l12.663-5.451a.483.483 0 1 1 .382.888l-12.663 5.451a.483.483 0 0 1-.607-.69zM785.432 897.933a.485.485 0 0 1 .892.333l-2.593 14.121a.483.483 0 1 1-.951-.175l2.592-14.121a.48.48 0 0 1 .06-.158zM778.881 894.343a.491.491 0 0 1 .158-.163l12.533-7.906a.484.484 0 0 1 .516.818l-12.533 7.906a.484.484 0 0 1-.674-.655z"/><path fill="#4c98c4" d="M786.343 204.251c-22.738-19.236 20.008-59.918 47.837-65.256 8.028 40.953-17.112 91.249-47.837 65.256z"/><path fill="#f7f6f1" d="M789.397 208.586a.782.782 0 0 1-.214-1.067l43.364-67.443a.783.783 0 0 1 1.081-.235.788.788 0 0 1 .235 1.081L790.5 208.366a.783.783 0 0 1-1.081.235l-.022-.015z"/><path fill="#f7f6f1" d="M824.956 153.283a.782.782 0 0 1 .253-1.402l9.419-2.38a.782.782 0 1 1 .383 1.517l-9.419 2.38a.785.785 0 0 1-.636-.115zM820.416 160.345a.78.78 0 0 1-.325-.5l-2.626-14.009a.782.782 0 1 1 1.538-.288l2.626 14.008a.782.782 0 0 1-1.213.789zM814.737 169.253a.78.78 0 0 1 .437-1.426l18.845-.149a.782.782 0 1 1 .012 1.564l-18.845.148a.774.774 0 0 1-.449-.137zM807.576 180.313a.779.779 0 0 1-.294-.386l-7.362-21.059a.782.782 0 1 1 1.476-.516l7.362 21.059a.782.782 0 0 1-1.182.902zM801.491 189.779a.783.783 0 0 1 .638-1.402l22.499 5.787a.783.783 0 0 1-.389 1.515l-22.499-5.787a.807.807 0 0 1-.249-.113zM794.953 199.945a.783.783 0 0 1-.245-.274l-11.339-21.127a.783.783 0 0 1 1.378-.74l11.339 21.127a.783.783 0 0 1-1.133 1.014z"/><path fill="#4c98c4" d="M1640.968 176.109c-15.598-9.77 6.978-38.41 23.532-44.119 8.507 24.347-2.455 57.321-23.532 44.119z"/><path fill="#f7f6f1" d="M1643.217 178.493a.483.483 0 0 1-.224-.634l20.604-45.063a.484.484 0 0 1 .88.401l-20.604 45.064a.482.482 0 0 1-.656.232z"/><path fill="#f7f6f1" d="M1660.112 141.54a.484.484 0 0 1 .031-.88l5.553-2.283a.483.483 0 1 1 .368.894l-5.553 2.283a.478.478 0 0 1-.399-.014zM1657.955 146.259a.484.484 0 0 1-.243-.277l-2.836-8.339a.483.483 0 1 1 .915-.311l2.837 8.339a.483.483 0 0 1-.673.588zM1655.263 152.207a.483.483 0 0 1 .143-.911l11.515-1.746a.483.483 0 1 1 .144.955l-11.515 1.746a.481.481 0 0 1-.287-.044zM1651.854 159.601a.477.477 0 0 1-.214-.21l-6.353-12.235a.484.484 0 0 1 .858-.446l6.353 12.235a.484.484 0 0 1-.644.656zM1648.963 165.926a.484.484 0 0 1 .267-.914l14.271 1.564a.484.484 0 0 1-.105.961l-14.271-1.564a.483.483 0 0 1-.162-.047zM1645.856 172.719a.477.477 0 0 1-.174-.146l-8.791-11.928a.485.485 0 0 1 .778-.574l8.791 11.928a.484.484 0 0 1-.604.72zM1777.076 477.967c10.808 14.304 44.239-11.934 51.211-29.195-27.711-5.341-65.816 9.866-51.211 29.195z"/><path fill="#4c98c4" d="M1775.333 475.388c11.159-2.95 34.574-17.326 52.954-26.616-27.711-5.341-65.608 10.186-52.954 26.616z"/><path fill="#4c98c4" d="M1816.978 452.638h.999v9.942h-.999z" transform="rotate(-79.543 1817.434 457.616)"/><path fill="#4c98c4" d="M1803.514 459.507h.999v15.538h-.999z" transform="rotate(-71.076 1804.098 467.303)"/><path fill="#4c98c4" d="M1770.285 476.573a.499.499 0 0 1 .395-.435c10.052-2.091 24.79-10.294 37.794-17.531 7.252-4.036 14.102-7.848 19.354-10.162a.5.5 0 0 1 .403.915c-5.21 2.294-12.04 6.096-19.271 10.12-13.066 7.272-27.875 15.514-38.076 17.636a.5.5 0 0 1-.599-.543z"/><path fill="#4c98c4" d="M1787.439 468.525h.999v15.735h-.999z" transform="rotate(-61.746 1787.893 476.36)"/><path fill="#4c98c4" d="M1821.157 447.357c-.043-.005-.083-.006-.123-.007-4.293-.29-8.77-.17-13.219.349h-.003a73.284 73.284 0 0 0-10.764 2.069c-3.512.958-6.744 2.138-9.615 3.5l-.068.03c-2.461 1.174-4.657 2.475-6.536 3.879-2.367 1.766-4.231 3.694-5.493 5.719-1.082 1.734-1.718 3.523-1.914 5.344a11.367 11.367 0 0 0-.015 2.289c.083.922.28 1.847.586 2.775.154.469.336.934.545 1.402l.165.362c.144.3.301.599.466.898.378.682.815 1.363 1.315 2.043.062.087.13.175.195.262 2.595 3.431 6.521 4.828 11.675 4.146a23.452 23.452 0 0 0 2.984-.603 29.273 29.273 0 0 0 2.299-.705 40.353 40.353 0 0 0 4.279-1.788c4.526-2.18 9.355-5.388 14.082-9.406 7.795-6.625 13.996-14.335 16.641-20.689.041-.089.078-.177.112-.263l.228-.564-.598-.114c-.231-.043-.464-.087-.698-.128a59.765 59.765 0 0 0-6.526-.8zm-23.848 3.374a71.764 71.764 0 0 1 9.925-1.952 72.153 72.153 0 0 1 13.062-.475c.36.02.716.043 1.072.073a58.05 58.05 0 0 1 5.261.612c.31.049.617.101.921.155.012.001.024.006.036.007-.09.207-.181.414-.281.623-1.2 2.598-2.974 5.384-5.15 8.192-.23.297-.463.591-.703.887-2.879 3.58-6.389 7.16-10.185 10.385a68.16 68.16 0 0 1-.895.748c-4.133 3.411-8.573 6.373-12.893 8.451a38.57 38.57 0 0 1-2.571 1.137c-.415.169-.825.326-1.23.471a7.015 7.015 0 0 1-.318.108c-1.29.452-2.554.804-3.781 1.047-.459.09-.909.165-1.359.225-4.771.633-8.386-.633-10.747-3.758a20.242 20.242 0 0 1-.718-1.009c-.003-.003-.003-.007-.005-.01a15.954 15.954 0 0 1-.851-1.414 1.94 1.94 0 0 1-.095-.18c-.013-.023-.026-.046-.036-.069-.041-.076-.079-.154-.118-.229-.663-1.341-1.077-2.673-1.24-3.994-.306-2.497.284-4.95 1.771-7.337 2.086-3.347 5.916-6.422 10.997-8.926.314-.158.634-.309.96-.46 2.746-1.281 5.829-2.397 9.171-3.308z"/><path fill="#f7f6f1" d="M1817.724 453.806a.519.519 0 0 1 .045-.16l2.844-6.012a.5.5 0 0 1 .903.427l-2.844 6.012a.499.499 0 0 1-.948-.267zM1804.995 460.213l.007-.043 2.366-12.07a.5.5 0 0 1 .981.192l-2.366 12.07a.5.5 0 0 1-.988-.149zM1787.109 453.68a.5.5 0 0 1 .994.004l1.51 14.837a.5.5 0 1 1-.994.101l-1.51-14.837a.526.526 0 0 1 0-.105zM293.433 904.15c-9.857-14.975-44.92 9.038-52.998 25.811 27.306 7.127 66.318-5.576 52.998-25.811z"/><path fill="#4c98c4" d="M295.005 906.836c-11.327 2.22-35.625 15.046-54.57 23.124 27.306 7.128 66.131-5.908 54.57-23.124z"/><path fill="#4c98c4" d="M251.296 916.872h.999v9.942h-.999z" transform="rotate(-75.818 251.814 921.88)"/><path fill="#4c98c4" d="M265.358 905.301h.999v15.538h-.999z" transform="rotate(-67.356 265.88 913.106)"/><path fill="#4c98c4" d="M300.119 905.982a.5.5 0 0 1-.423.409c-10.167 1.435-25.406 8.663-38.852 15.041-7.499 3.557-14.581 6.917-19.973 8.884a.5.5 0 0 1-.343-.939c5.348-1.952 12.41-5.302 19.887-8.848 13.51-6.409 28.823-13.672 39.14-15.128a.5.5 0 0 1 .564.581z"/><path fill="#4c98c4" d="M281.991 897.148h.999v15.735h-.999z" transform="rotate(-58.028 282.5 905.036)"/><path fill="#4c98c4" d="M294.191 919.304c1.193-1.659 1.945-3.406 2.258-5.21.288-1.647.208-3.346-.234-5.073a14.74 14.74 0 0 0-.602-1.821 16.468 16.468 0 0 0-.406-.925 19.724 19.724 0 0 0-1.357-2.399c-2.364-3.595-6.195-5.242-11.382-4.896-6.768.453-15.664 4.44-24.407 10.94-8.321 6.19-15.079 13.602-18.075 19.824l-.266.547.59.153a59.667 59.667 0 0 0 7.183 1.397.104.104 0 0 0 .041.007c4.278.571 8.775.742 13.27.511a.022.022 0 0 1 .014.002 73.29 73.29 0 0 0 10.854-1.366c3.566-.725 6.866-1.696 9.817-2.867l.093-.035c.004-.001.008-.006.012-.006 2.524-1.008 4.787-2.159 6.746-3.434l.02-.012c2.468-1.608 4.445-3.403 5.831-5.337zm-.81-.582c-2.299 3.203-6.321 6.022-11.556 8.194-.322.133-.651.265-.985.394-2.82 1.099-5.968 2.012-9.365 2.706a71.936 71.936 0 0 1-10.033 1.306 72.083 72.083 0 0 1-13.064-.375 50.661 50.661 0 0 1-1.065-.14 59.908 59.908 0 0 1-5.213-.951c-.303-.073-.604-.144-.903-.218-.014-.002-.025-.007-.039-.009.101-.2.209-.403.318-.605 1.37-2.512 3.318-5.18 5.674-7.838.247-.282.498-.559.756-.841 3.105-3.383 6.838-6.73 10.84-9.701.31-.232.625-.461.938-.688 5.214-3.757 10.822-6.854 16.05-8.566.425-.139.846-.269 1.266-.39 1.92-.554 3.779-.906 5.535-1.024 4.801-.319 8.328 1.176 10.48 4.449.464.706.868 1.406 1.208 2.1.072.142.138.288.205.433.078.161.147.324.214.49 1.665 3.995 1.245 7.776-1.261 11.274z"/><path fill="#f7f6f1" d="M251.303 925.622a.516.516 0 0 1-.055.157l-3.228 5.815a.5.5 0 0 1-.873-.485l3.228-5.815a.5.5 0 0 1 .928.328zM264.421 920.054l-.009.042-3.144 11.891a.499.499 0 1 1-.966-.256l3.144-11.891a.499.499 0 0 1 .975.214zM281.845 927.734a.5.5 0 0 1-.991-.068l-.545-14.903a.5.5 0 0 1 .999-.037l.545 14.903a.596.596 0 0 1-.008.105z"/><path fill="#2e6c9e" d="M1551.059 78.695h33.424v7.754h-33.424z"/><path fill="#2e6c9e" d="M1551.059 78.695h33.424v7.754h-33.424z" transform="rotate(90 1567.771 82.572)"/><path fill="#97c4de" d="M1706.411 763.835h33.424v7.754h-33.424z"/><path fill="#97c4de" d="M1706.411 763.835h33.424v7.754h-33.424z" transform="rotate(90 1723.123 767.712)"/><path fill="#2e6c9e" d="M87.059 762.695h33.424v7.754H87.059z"/><path fill="#2e6c9e" d="M87.059 762.695h33.424v7.754H87.059z" transform="rotate(90 103.771 766.572)"/><path fill="#2e6c9e" d="M465.059 276.643h33.424v7.754h-33.424z"/><path fill="#2e6c9e" d="M465.059 276.643h33.424v7.754h-33.424z" transform="rotate(90 481.771 280.52)"/><path fill="#e0f0ff" d="M1756.318 620.354c-19.651 0-35.638-15.987-35.638-35.639s15.987-35.639 35.638-35.639c19.652 0 35.639 15.987 35.639 35.639s-15.987 35.639-35.639 35.639zm0-52.183c-9.122 0-16.542 7.422-16.542 16.544s7.421 16.544 16.542 16.544 16.544-7.422 16.544-16.544-7.422-16.544-16.544-16.544z" opacity=".75"/><path fill="#e0f0ff" d="M306.456 806.639c-19.651 0-35.638-15.987-35.638-35.639s15.987-35.639 35.638-35.639c19.652 0 35.639 15.987 35.639 35.639s-15.987 35.639-35.639 35.639zm0-52.183c-9.122 0-16.542 7.422-16.542 16.544s7.421 16.543 16.542 16.543c9.122 0 16.544-7.422 16.544-16.543s-7.422-16.544-16.544-16.544z" opacity=".75"/><path fill="#2e6c9e" d="M1674.032 906.458c-10.73 0-19.458-8.729-19.458-19.458 0-10.73 8.729-19.458 19.458-19.458 10.73 0 19.458 8.729 19.458 19.458.001 10.73-8.728 19.458-19.458 19.458zm0-28.491c-4.98 0-9.032 4.052-9.032 9.033 0 4.98 4.052 9.033 9.032 9.033s9.033-4.052 9.033-9.033c0-4.98-4.052-9.033-9.033-9.033z"/><path fill="#4c98c4" d="M1625 840.959c0 6.233-5.684 11.285-12.696 11.285H364.172c-7.012 0-12.696-5.052-12.696-11.285 0-6.233 5.684-11.285 12.696-11.285h1248.132c7.012 0 12.696 5.052 12.696 11.285z"/><path fill="#6da6c7" d="M572.946 852.244h3.883l1.034.573a959.69 959.69 0 0 0 9.946 5.405h.003a1111.365 1111.365 0 0 0 27.15 14.085 1116.932 1116.932 0 0 0 36.783 17.641c1.21.552 2.416 1.101 3.629 1.646 11.229 5.082 22.61 9.981 33.878 14.525.141.056.26.134.345.232.264.25.302.615.197.932v.004c-.007.021-.01.039-.018.053v.004c-.127.317-.397.566-.749.609a1.013 1.013 0 0 1-.471-.07c-6.32-2.486-12.981-5.254-19.856-8.226-1.488-.651-2.993-1.305-4.505-1.973-10.248-4.512-20.894-9.443-31.526-14.564-.003 0-.003-.003-.007-.003a1228.935 1228.935 0 0 1-38.774-19.54c-.728-.383-1.452-.763-2.177-1.154-.004 0-.004-.004-.007-.004a978.49 978.49 0 0 1-18.758-10.175z"/><path fill="#6da6c7" d="M688.904 907c16.221 6.379 31.136 11.743 48.581 15.634L688.904 907z"/><path fill="#6da6c7" d="M707.563 923.802c-12.046-4.066-19.258-15.288-18.659-16.802.761-1.925 17.524-6.722 34.014 3.791 5.788 3.516 12.511 9.629 14.567 11.842-7.463 3.104-20.076 4.599-29.922 1.169zM665.02 897.005c1.444-.216 5.107 4.193 6.035 5.377 12.09 15.184 9.084 29.694 11.246 40.645-3.959-.62-10.889-4.694-15.991-11.492-12.654-16.951-3.074-34.256-1.29-34.53zM630.546 881.814c2.184-1.325 1.939 2.021 7.126 14.678 4.076 10.023 12.685 32.955 5.583 41.086-2.802-7.123-10.613-10.35-16.608-20.413-9.728-16.317-1.917-31.821 3.899-35.351zM578.606 874.717c1.22-2.353 2.974-5.118 4.837-6.934 5.096-5.071 9.572-5.972 10.129-5.45.772.713-.059 4.56-.279 9.349-.238 3.835.195 38.033 3.052 47.268.109.35.041.154.45 1.189-6.127-.969-16.853-10.273-20.219-23.221-2.231-8.506-.93-16.733 2.03-22.201zM544.604 901.832c.317-5.106.819-14.008 1.259-20.739v-.004c.091-1.393.179-2.687.26-3.844.081-1.147.158-2.145.228-2.951v-.007c.039-.432.074-.819.109-1.129.134-1.614.419-3.893.798-6.524a350.112 350.112 0 0 1 2.321-13.684c.046-.243.091-.478.141-.707h13.688c1.382 4.03 2.064 8.634 1.899 13.477-.267 7.969-2.824 16.565-8.335 24.249a41.036 41.036 0 0 1-1.206 1.607 42.163 42.163 0 0 1-2.012 2.391c-3.211 3.64-6.686 6.38-8.69 7.6-.165.096-.316.188-.46.265zM651.842 891.088c-.83-1.226 2.118-9.279 10.242-15.411 9.395-7.075 20.666-7.61 28.889-3.481 4.931 2.49 7.886 5.623 10.951 10.059-6.972 1.386-7.735.362-21.861 4.76-13.186 4.29-27.354 5.358-28.221 4.073zM617.885 855.483a31.193 31.193 0 0 1 2.74-3.239h26.261c-7.99 8.026-12.548 11.701-19.241 15.01-3.359 1.667-9.541 4.287-12.682 5.054-.932.232-1.597.299-1.843.123-.253-.18-.45-.64-.556-1.33-.429-2.778.633-9.238 5.321-15.618zM575.405 852.244h5.022c-.211.067-.422.123-.619.172-.724.197-1.379.323-1.945.401-1.227.169-2.057.077-2.297-.215a.85.85 0 0 1-.161-.358z"/><path fill="#97c4de" d="M369.903 852.244H493.09a76.605 76.605 0 0 1-.317 4.144c-3.008 29.519-21.61 63.673-49.169 92.747-.578.609-1.156 1.218-1.739 1.821-10.892 11.255-23.124 21.702-36.303 30.773-.696.481-1.392.957-2.093 1.422-7.04 4.737-14.345 9.076-21.85 12.928a70.1 70.1 0 0 1-1.095.557c-.158.082-.312.164-.471.241-.087-.169-.169-.338-.251-.507a32.758 32.758 0 0 1-.476-.957c-5.551-11.367-9.725-25.124-12.473-40.089-.153-.839-.302-1.678-.445-2.522-5.514-32.188-4.522-69.55 3.495-100.558z"/><path fill="#f7f6f1" d="M379.327 995.414c-.005-.148.02-.297.072-.445l13.209-37.357c.016-.056.036-.113.061-.169l6.605-18.689 1.218-3.443 20.74-58.66 1.064-3.003 7.567-21.405h2.66l-8.052 22.771c-.005.01-.01.026-.016.041l-11.833 33.458-.998 2.829-8.907 25.186c-.016.056-.036.107-.056.158l-7.505 21.221v.005l-1.223 3.464-12.171 34.425a1.112 1.112 0 0 1-.143.276c-.235.368-.66.583-1.095.557a1.165 1.165 0 0 1-.721-.266 1.251 1.251 0 0 1-.476-.954z"/><path fill="#f7f6f1" d="M393.81 956.713c.483 0 .943.281 1.149.752l10.7 24.483a1.254 1.254 0 1 1-2.298 1.004l-10.7-24.483a1.254 1.254 0 0 1 1.149-1.756zM401.507 934.943a1.254 1.254 0 0 1 .574 2.369l-34.872 17.898a1.254 1.254 0 0 1-1.145-2.231l34.872-17.898c.182-.094.378-.138.571-.138zM411.295 907.59c.378 0 .751.17.998.493l31.434 41.209a1.254 1.254 0 0 1-1.993 1.521L410.3 909.604a1.254 1.254 0 0 1 .995-2.014zM423.272 873.39a1.255 1.255 0 0 1 .398 2.443l-58.176 19.486a1.253 1.253 0 1 1-.796-2.378l58.176-19.486c.131-.044.266-.065.398-.065zM440.283 852.244h4.093l25.242 19.574.491.384 14.739 11.424c.547.425.645 1.207.22 1.755-.42.547-1.207.65-1.755.225l-43.03-33.362z"/><path fill="#4c98c4" d="M527.224 852.244h2.42a412.534 412.534 0 0 1 9.132 11.7 436.729 436.729 0 0 1 7.577 10.345v.005a441.64 441.64 0 0 1 10.621 15.675 388.32 388.32 0 0 1 4.374 6.901c.604.972 1.202 1.949 1.796 2.921 5.96 9.782 11.485 19.727 16.489 29.724.061.123.097.245.107.358.041.404-.205.737-.527.901-.026.01-.051.025-.077.036-.297.118-.645.107-.916-.102a.982.982 0 0 1-.281-.348 394.608 394.608 0 0 0-9.148-17.205 515.611 515.611 0 0 0-2.276-3.99 428.753 428.753 0 0 0-16.817-26.742c-.445-.655-.89-1.31-1.345-1.964a441.302 441.302 0 0 0-21.129-28.215z"/><path fill="#4c98c4" d="M578.786 929.938c9.362 18.116 14.883 35.58 17.335 43.463l-17.335-43.463z"/><path fill="#4c98c4" d="M576.775 937.795c.253-3.65 1.207-7.461 2.011-7.857 1.891-.932 12.679 4.617 17.31 15.703 3.549 8.715 2.916 19.998.026 27.76-3.177-2.328-9.048-7.895-12.452-12.516-5.018-6.864-7.558-13.372-6.895-23.09zM549.24 925.906c5.298-11.355 16.903-17.535 18.377-16.824 1.27.614 1.844 7.399.394 13.862-3.002 13.154-12.926 20.279-19.104 27.832-2.91-3.369-4.625-14.341.333-24.87zM532.947 891.131c7.025-9.384 15.872-11.326 16.631-10.561.65.655-.326 4.128-1.379 8.284-1.174 4.556-1.517 6.575-2.504 10.392-2.534 9.985-9.472 27.374-19.248 30.373.412-1.052.952-2.382.925-5.009-.043-6-4.754-19.688 5.575-33.479zM513.585 852.244h11.695c-.742 1.284-1.857 3.075-3.198 5.556-1.98 3.535-3.105 6.006-7.086 14.35-7.756 15.312-11.9 22.526-13.056 27.621-9.218-5.709-9.474-35.06 11.645-47.527zM469.265 872.482c.123-.225.24-.445.353-.665 6.129-11.526 6.543-12.933 9.807-19.574h16.699a49.633 49.633 0 0 1-3.351 4.144c-6.871 7.633-16.044 13.465-22.664 15.813-.286.098-.567.196-.844.282zM560.837 897.765c.033-.906 2.457-2.526 3.221-3.009 18.853-11.37 44.214.428 41.016 25.674-7.44-4.798-7.865-6.253-19.732-10.667-8.607-3.06-24.57-10.209-24.505-11.998zM538.776 863.945c.158-.443.404-.957.735-1.519.313-.538.707-1.125 1.171-1.741 1.864-2.462 4.899-5.391 8.898-7.734.415-.246.833-.482 1.27-.707h28.62c.113.056.222.116.338.172 3.489 1.811 6.26 4.006 8.001 5.806h.003c.485.507.897.985 1.217 1.41-.577.158-1.146.309-1.702.457-10.181 2.761-16.515 4.586-22.019 5.631-3.992.749-7.547 1.097-11.813 1.087-.848 0-3.447-.039-6.236-.172-2.543-.116-5.244-.313-6.928-.619-.932-.169-1.551-.369-1.674-.608-.159-.303-.11-.809.119-1.463z"/><path fill="#aacef4" d="M1021.303 386.484c8.468-19.501 21.186-34.055 21.495-34.295l1.673 1.71c-4.999 14.122-7.19 29.27-6.013 44.863 5.003 66.257 68.898 115.451 142.712 109.877a151.41 151.41 0 0 0 10.597-1.179c.642.721 1.245 1.403 1.81 2.048-14.788 7.863-31.595 12.911-49.633 14.273-65.265 4.928-121.881-40.185-126.455-100.763a102.702 102.702 0 0 1 3.814-36.534z"/><ellipse cx="1126.647" cy="420.026" fill="#f7f6f1" opacity=".29" rx="99.008" ry="112.219" transform="rotate(-52.7 1126.65 420.01)"/><path fill="#cde5fe" d="M1187.916 362.793c-43.5-43.909-111.557-49.449-152.008-12.374a89.138 89.138 0 0 0-3.243 3.135 88.192 88.192 0 0 1 11.088-12.262c40.452-37.075 108.508-31.535 152.008 12.374 42.301 42.698 45.799 105.951 8.763 143.499 28.417-38.058 22.43-94.968-16.608-134.372z" opacity=".81"/><path fill="#232b59" d="M1203.533 351.976c-46.409-46.844-118.14-53.557-160.217-14.992-42.077 38.564-38.565 107.801 7.844 154.646 46.408 46.844 118.14 53.556 160.217 14.992 42.076-38.565 38.564-107.802-7.844-154.646zM1058.512 484.89c-42.19-42.586-45.382-105.529-7.13-140.587 38.251-35.058 103.462-28.956 145.652 13.629 42.189 42.586 45.382 105.528 7.13 140.587-38.252 35.059-103.462 28.957-145.652-13.629z"/><path fill="#f7f6f1" d="M1137.769 374.761c-8.913 2.531-18.72-3.328-21.906-13.088-3.186-9.759 1.456-19.722 10.369-22.253 8.913-2.531 18.72 3.328 21.906 13.088 3.186 9.759-1.456 19.722-10.369 22.253zM1179.164 393.556c-3.043 3.132-8.427 3.049-12.026-.186-3.598-3.234-4.049-8.396-1.006-11.527 3.043-3.132 8.427-3.048 12.026.186s4.049 8.395 1.006 11.527z"/><path fill="#185587" d="m1296.83 593.244-66.506-63.843a6.112 6.112 0 0 1 8.464-8.818l66.505 63.843a6.112 6.112 0 0 1 .177 8.641 6.109 6.109 0 0 1-8.64.177z"/><path fill="#232b59" d="M1202.307 505.785h37.024v12.222h-37.024z" transform="rotate(43.83 1220.85 511.894)"/><path fill="#f7f6f1" d="m1346.589 496.894.137-.71c1.671-8.665 1.502-16.701 1.708-25.423.109-4.597.202-9.302-1.251-13.665-2.516-7.556-10.446-8.836-14.22-15.262-.671-1.142-.385-2.111-.733-3.231-1.472-4.744-4.939-8.646-8.695-11.764-1.993-1.655-4.135-3.131-6.359-4.458a58.54 58.54 0 0 0-3.158-1.753c-1.173-.604-2.078-1.449-3.221-2.089-3.649 6.227-4.139 14.102-4.564 21.169-.463 7.694-.235 15.411.114 23.105.268 5.91.619 11.817.789 17.732.067 2.333 1.259 31.845 1.709 32.671.45.827-58.328 2.207-62.446 2.259-1.167.015-3.811 9.573-3.374 10.879 1.374 4.115 9.96 6.245 13.648 7.555 15.511 5.509 32.092 9.19 48.503 10.479 10.242.804 28.567 1.643 33.119-9.518 1.83-4.486 2.758-9.279 3.675-14.035l4.619-23.941z"/><path fill="#d2ddfa" d="M1279.026 516.436c-7.978.238-16.285.455-22.552.607-.057-1.191-.13-2.38-.222-3.567 15.579-.377 43.855-1.169 50.657-1.744-.742-7.627-1.552-30.863-1.56-31.134-.116-4.042-.321-8.159-.52-12.139-.092-1.854-.184-3.708-.268-5.563-.289-6.361-.508-13.108-.272-19.841.42-1.281.863-2.554 1.297-3.83a13.106 13.106 0 0 0 2.528-.934c-.032.511-.065 1.025-.095 1.527-.464 7.701-.219 15.565.115 22.916.084 1.849.177 3.698.268 5.547.199 3.999.405 8.134.522 12.214.083 2.881 1.172 29.198 1.61 32.088l.365.687-.51.872c-.686 1.169-.81 1.38-31.363 2.294z"/><path fill="#d2ddfa" d="m1254.567 531.328.701.228c.754.244 1.437.466 2.005.668 15.626 5.549 32.239 9.139 48.045 10.381 11.602.912 27.471 1.031 31.322-8.41 1.77-4.341 2.688-9.099 3.575-13.699l4.755-24.651c.035-.184.061-.365.095-.548a38.559 38.559 0 0 0 2.708 4.906l-4.045 20.971c-.921 4.771-1.873 9.705-3.777 14.372-3.635 8.914-14.354 11.045-25.422 11.045-3.188 0-6.407-.176-9.492-.419-16.113-1.266-33.044-4.923-48.961-10.576a71.565 71.565 0 0 0-1.911-.635c-.759-.246-1.565-.509-2.386-.79a10.774 10.774 0 0 0 2.788-2.843zM1310.417 512.362l.015.029-.015-.029z"/><path fill="#4c98c4" d="m1245.812 514.74-3.442 14.304s10.101 3.654 11.583 3.984l4.021-18.856c-4.51-.114-12.162.568-12.162.568zM1449.265 534.667c1.791 2.387 3.664 4.71 5.366 7.126 1.181 1.676 3.539 3.571 5.692 2.189.68-.437 1.108-1.165 1.494-1.875a49.512 49.512 0 0 0 3.866-9.256c.413-1.363.767-2.826.379-4.196-.31-1.094-1.06-2.001-1.8-2.865a147.66 147.66 0 0 0-14.334-14.546c-2.386 5.634-4.561 14.079-2.582 20.137.396 1.212 1.154 2.267 1.919 3.286z"/><path fill="#f7f6f1" d="M1346.257 484.271a569.564 569.564 0 0 1-1.63-8.188c-1.857-9.704-2.642-19.921-5.386-29.377-3.415-11.766.189-22.321 4.042-33.512 3.252-9.446 5.971-19.991 2.114-29.207-.579-1.383-1.374-2.784-2.703-3.477-2.074-1.081-4.61-.06-6.577 1.206-9.422 6.062-15.043 17.586-20.131 27.225-2.538 4.808-6.628 14.46-6.628 14.46-.302.662 5.093 21.408 8.027 30.734 3.201 10.175 7.088 20.118 11.19 29.959 8.174 19.612 17.324 38.85 24.013 59.049 3.006 9.076 4.387 19.351 6.186 28.799.998 5.242 5.508 100.457 11.909 100.657 4.668.145 9.102 1.226 13.803.453 7.156-1.177 14.375-2.033 21.557-3.036l27.164-3.792-34.654-196.633-52.296 14.68z"/><path fill="#f49e87" d="M1463.666 816.49h14.034v14.034h-14.034z" transform="rotate(-2.688 1472.649 823.583)"/><path fill="#f49e87" d="M1395.72 814.328h14.034v16.439h-14.034z" transform="rotate(2.807 1403.594 823.508)"/><path fill="#232b59" d="M1411.799 570.496c1.175-15.746 2.007-30.25-9.405-44.864-2.55-3.265-5.73-6.373-9.78-7.248-14.343-3.096-25.521 29.694-25.521 29.694s1.972 92.424 10.256 133.123c8.34 40.971 15.747 93.768 15.621 135.898 4.594.902 19.521 1 19.521 1s4.4-34.532 4.535-36.231c1.376-17.305 2.454-34.693 3.547-52.021.762-12.078.313-24.544-4.317-35.726-4.215-10.182-4.885-27.342-5.079-38.271-.45-25.474-.626-45.028-.214-70.501.085-5.093.477-10.031.836-14.853z"/><path fill="#232b59" d="M1452.832 588.66c-1.712-21.001-6.852-44.401-29.375-52.654-11.288-4.136-23.661-3.731-35.675-3.273-1.243.047-2.674.193-3.377 1.219-.532.776-3.95 4.479-3.95 4.479s22.36 88.412 36.555 132.03c0 0 39.651 93.057 44.734 146.445 4.66.448 17.197 2.167 17.197 2.167 1.26-.301.38-18.877.348-20.581-.322-17.357-.949-34.767-1.556-52.119-.423-12.095-2.089-24.457-7.789-35.133-5.191-9.721-7.469-20.786-8.73-31.644-3.497-30.12-5.907-60.58-8.382-90.936z"/><path fill="#f49e87" d="M1332.33 367.743c2.158 2.665 4.787 4.593 6.696 7.441 2.221 3.313 5.145 6.201 7.782 9.191.39.442.852.92 1.442.93.405.007.775-.213 1.12-.425 6.745-4.163 13.747-8.594 17.776-15.421.297-.503.581-1.031.662-1.61.101-.722.612-1.16.37-1.848-2.453-5.081-5.932-9.882-8.539-14.794-2.009-3.787-4.966-6.179-9.386-7.001-3.77-.701-7.693.258-11.144 1.929-2.784 1.348-5.422 3.247-6.942 5.941-1.52 2.695-1.698 6.294.16 8.768l.003 6.899z"/><radialGradient id="a" cx="-1830.255" cy="457.462" r="76.872" gradientTransform="matrix(-1 0 0 1 -442.692 0)" gradientUnits="userSpaceOnUse"><stop offset="0" stop-color="#224f73"/><stop offset="1" stop-color="#2e6c9e"/></radialGradient><path fill="url(#a)" d="M1399.731 541.726c-10.768 2.719-32.965 8.363-32.965 8.363s-1.161-5.362-1.366-6.291a83.13 83.13 0 0 0-2.034-7.549c-2.375-7.412-5.933-14.406-8.785-21.597-2.969-7.484-6.224-14.86-9.884-22.034-4.464-8.751-8.335-17.83-11.119-27.262-.889-3.011-2.867-8.461-1.828-11.551.465-1.382 1.812-2.199 2.207-3.726.532-2.057-.187-4.188-.731-6.162-3.013-10.931-2.844-22.182-2.157-33.413.393-6.713 2.089-12.659 1.538-19.393-.16-1.947-.048-3.753.661-5.57.635-1.628.72-3.193 2.299-4.166l4.345-2.676c.213-.131.429-.264.669-.337 1.11-.341 2.609.639 3.684.895 1.544.367 3.016.656 4.616.549 2.501-.166 4.961-.839 7.221-1.917 2.742-1.308 5.205-3.219 7.117-5.582 1.793-2.216 4.103-4.546 4.513-7.475 3.349 2.306 6.655 4.505 10.04 6.757a78.563 78.563 0 0 1 5.079 3.675 68.746 68.746 0 0 1 2.36 1.943c.448.386 1.877 1.272 2.035 1.832 5.617 5.295 8.156 16.005 10.742 23.135 5.511 15.198 8.761 31.082 13.227 46.592 8.064 28.008 17.132 55.699 33.26 79.976-15.839 5.239-28.572 8.9-44.744 12.984z"/><path fill="#232b59" d="M1314.893 349.173c2.994 2.246 7.109 3.409 10.783 3.678 2.968.217 5.975.432 8.899-.117 1.699-.319 3.099-.933 4.417-1.999 1.807-1.462 2.919-2.045 5.129-1.221 1.812.675 3.485 1.665 5.14 2.652 3.15 1.879 6.409 4.035 10.2 4.154.834.026 1.915-.283 1.95-1.116.012-.29-.12-.565-.248-.825l-7.786-15.764c-2.37-4.797-5.069-9.457-7.229-14.373-1.077-2.452-2.503-4.96-4.9-6.155-1.324-.661-2.827-.855-4.302-.98-5.151-.436-10.687-.692-15.785.077-5.099.769-10.549 2.2-13.727 6.26-3.665 4.681-3.119 11.534-.633 16.935 2.781 6.041 6.769 11.154 13.956 10.815l-5.864-2.021z"/><path fill="#f7b690" d="M1312.126 331.188c-5.289 4.766-1.544 17.556-.498 23.439 1.587 8.923 5.58 18.201 9.41 26.389 3.32 7.098 9.714 3.048 14.772.419a60.44 60.44 0 0 0 11.79-8.023c.969-.844 1.953-1.782 2.311-3.016.314-1.08.103-2.236-.125-3.337-.643-3.106-7.016-30.433-12.664-26.321-2.158 1.571-2.116 5.52-1.557 7.808.142.582.336 1.174.254 1.767-.082.593-.552 1.189-1.151 1.165-.356-.014-.666-.237-.937-.467-1.838-1.562-2.903-3.828-3.858-6.043-1.774-4.11-3.078-8.519-5.344-12.392-2.427-4.15-8.989-4.463-12.403-1.388z"/><path fill="#f7f6f1" d="M1449.726 667.601c9.263-5.16 20.646-6.597 30.537-10.017 3.117-1.078 20.007-6.181 23.152-7.191.959-3.939-46.777-102.305-48.17-105.04-10.957-21.519-25.516-40.943-27.935-65.741-1.404-14.395 3.203-32.196 3.203-32.196l14.434 13.308 2.254 58.62c1.571 1.065 18.787 13.2 18.787 13.2s11.387-61.799 12.05-68.542c2.13-21.651-30.823-61.551-43.673-73.561-13.96-13.049-31.596-22.163-50.835-25.091-5.428-.826-10.793-.586-16.242-.93 1.058 1.298 2.268 2.556 3.148 3.972 4.582 7.375 5.876 17.053 6.589 25.522.735 8.731.598 17.507 1.288 26.239a374.98 374.98 0 0 0 8.325 54.176c3.635 15.854 8.396 31.187 14.443 46.161 6.442 15.946 48.475 146.778 48.645 147.111z"/><path fill="#d2ddfa" d="M1448.134 668.415c-.096-.188-.096-.188-3.844-11.776-10.834-33.497-39.612-122.473-44.865-135.48-6.043-14.968-10.796-30.155-14.528-46.431a377.42 377.42 0 0 1-8.365-54.435c-.339-4.292-.482-8.645-.62-12.855-.145-4.395-.294-8.939-.667-13.375-.701-8.321-2-17.766-6.326-24.728-.557-.896-1.285-1.746-2.056-2.646a61.597 61.597 0 0 1-.959-1.139l-2.587-3.174 4.086.259c1.894.12 3.825.169 5.692.216 3.484.089 7.087.18 10.706.731 19.107 2.908 37.015 11.744 51.787 25.553 13.91 13.001 46.394 53.061 44.231 75.043-.663 6.741-11.606 66.165-12.072 68.691l-.506 2.747-2.283-1.609c-.172-.121-17.221-12.138-18.76-13.182l-.748-.508-2.261-58.781-11.625-10.718c-1.206 5.598-3.497 18.132-2.473 28.622 1.802 18.479 10.365 33.703 19.43 49.821 2.79 4.961 5.675 10.091 8.318 15.282.756 1.486 12.967 26.616 24.99 52.117 24.076 51.064 23.604 53 23.323 54.157l-.237.974-.953.306c-1.209.389-4.39 1.364-8.075 2.494-5.854 1.795-13.14 4.029-15.04 4.685-3.595 1.243-7.423 2.24-11.125 3.203-6.572 1.71-13.366 3.478-19.126 6.686l-1.619.902-.843-1.652zm5.518-122.25c-2.609-5.125-5.476-10.223-8.249-15.152-8.848-15.731-17.997-31.999-19.873-51.228-1.419-14.543 3.06-32.078 3.252-32.818l.748-2.891 17.176 15.835 2.249 58.469a5777.562 5777.562 0 0 1 15.78 11.091c2.213-12.055 10.956-59.863 11.524-65.646 2.011-20.448-30.028-59.849-43.114-72.08-14.243-13.314-31.492-21.831-49.883-24.63-3.396-.517-6.73-.602-10.259-.691-.587-.015-1.181-.03-1.778-.047.255.344.501.699.731 1.068 4.726 7.607 6.115 17.572 6.852 26.316.381 4.526.532 9.118.678 13.557.137 4.17.279 8.481.611 12.691a374.093 374.093 0 0 0 8.286 53.918c3.689 16.09 8.386 31.101 14.358 45.891 5.3 13.124 34.107 102.189 44.951 135.719 1.33 4.113 2.426 7.499 3.075 9.498 5.677-2.8 11.959-4.435 18.054-6.021 3.803-.99 7.395-1.924 10.857-3.122 1.96-.678 8.973-2.828 15.161-4.725 2.611-.801 4.969-1.524 6.54-2.011-3.678-12.036-44.212-96.088-47.727-102.991zm47.99 104.115z"/><path fill="#d14754" d="M1350.936 395.142s-2.79 13.683-3.162 22.83c-.472 11.581 1.021 23.147 3.046 34.526 3.652 20.526 16.277 55.62 16.277 55.62l16.915 14.094-2.728-18.059s-19.382-49.307-23.495-76.041c-.842-5.472-1.301-10.997-1.57-16.526-.201-4.143-1.754-11.855-.364-15.561.001-.002 2.557-6.817 3.358-10.363.091-.403.166-.869-.088-1.196-.365-.471-4.113-2.092-4.781-2.233-.969-.204-1.976-.102-2.948.083-4 .759-3.894 2.518-2.702 5.311 1.04 2.434 1.627 4.899 2.242 7.515z"/><path fill="#f7f6f1" d="m1393.643 468.595.086-2.137c.321-7.895 2.131-15.453 4.203-23.059 1.457-5.347 4.857-15.908 4.857-15.908l-17.384 1.728 12.695-26.647s-20.909-36.211-29.857-37.34c10.612 13.914 7.526 32.574 8.374 48.874a289.115 289.115 0 0 0 6.487 47.618c3.843 17.306 14.614 51.279 14.614 51.279-1.634-7.636-3.239-14.993-3.934-22.796-.636-7.111-.426-14.406-.141-21.612z"/><path fill="#d2ddfa" d="M1381.357 462.112a291.505 291.505 0 0 1-6.528-47.913c-.192-3.683-.185-7.543-.178-11.276.023-12.919.046-26.278-7.831-36.607l-2.588-3.393 4.234.534c9.355 1.181 27.617 32.045 31.183 38.22l.47.815-11.735 24.634 16.945-1.684-.836 2.598c-.034.105-3.405 10.583-4.834 15.83-1.831 6.724-3.813 14.574-4.141 22.661l-.086 2.134v.001c-.276 6.967-.492 14.359.134 21.384.665 7.466 2.167 14.484 3.758 21.912l.143.668-3.454.915c-.11-.341-10.841-34.248-14.656-51.433zm10.499 6.412.086-2.139c.344-8.46 2.381-16.544 4.264-23.457 1.019-3.742 2.947-9.905 4.051-13.389l-17.831 1.773 13.652-28.659c-5.991-10.273-15.487-24.701-22.306-31.635 4.494 9.84 4.474 21.025 4.455 31.911-.007 3.855-.013 7.496.173 11.084a287.851 287.851 0 0 0 6.448 47.323c1.55 6.982 4.26 16.777 6.927 25.926-.356-6.264-.16-12.663.08-18.739v.001z"/><path fill="#f7f6f1" d="M1356.954 377.336c2.364-1.395 4.421-3.266 6.199-5.348a35.61 35.61 0 0 0 2.544-3.382c.418-.626 2.33-2.931 2.184-3.658 1.842 9.928-.005 18.097-5.743 26.43-.335.487-.68.968-1.033 1.443-2.92-3.452-6.177-6.64-9.265-9.939.253.27-2.785 4.796-3.098 5.289-1.073 1.692-2.163 3.633-3.54 5.077-.644-.532-1.017-1.754-1.418-2.501a69.417 69.417 0 0 1-4.788-11.172c-.123-.374 2.109-1.521 2.109-1.521s2.04.865 3.035.997c2.014.267 4.136.921 6.159.643 2.345-.32 4.619-1.157 6.655-2.358z"/><path fill="#829ee0" d="M1409.974 500.338a2.924 2.924 0 1 1-5.848 0 2.924 2.924 0 0 1 5.848 0zM1415.481 527.012a2.924 2.924 0 1 1-5.848 0 2.924 2.924 0 0 1 5.848 0z"/><path fill="#f7f6f1" d="M1333.15 382.41c2.026-2.457 5.228-4.646 7.955-4.353-1.5 8.796-5.492 17.803-6.521 26.766-1.038 9.036-.936 18.168-.379 27.234 1.553 25.267 7.154 49.22 15.468 73.051 3.231 9.262 8.726 17.768 10.555 27.405a317.055 317.055 0 0 1-15.31-30.338c-4.62-10.52-8.498-21.217-13.262-31.66-3.943-8.644-10.29-26.718-10.29-26.718l11.117 1.155-16.172-23.428c0-.001 11.686-32.864 16.839-39.114z"/><path fill="#d2ddfa" d="M1358.677 533.402a320.023 320.023 0 0 1-15.396-30.509c-2.098-4.777-4.07-9.656-5.978-14.375-2.3-5.69-4.678-11.573-7.274-17.264-3.931-8.618-10.09-26.126-10.351-26.867l-.935-2.663 10.062 1.045-14.486-20.985.307-.862c.482-1.354 11.851-33.233 17.144-39.651 2.103-2.55 5.858-5.389 9.526-4.994l1.891.203-.32 1.876c-.696 4.077-1.919 8.222-3.103 12.23-1.405 4.758-2.858 9.678-3.405 14.438-.9 7.836-1.018 16.39-.37 26.92 1.431 23.288 6.459 47.026 15.371 72.571 1.214 3.479 2.797 6.942 4.328 10.292 2.521 5.517 5.129 11.222 6.296 17.37l1.982 10.444-5.289-9.219zm-34.675-87.534c1.916 5.342 6.316 17.403 9.281 23.904 2.628 5.762 5.021 11.682 7.335 17.407 1.871 4.628 3.804 9.411 5.849 14.076-6.305-18.875-10.494-36.818-12.678-54.37l-9.787-1.017zm10.528-62.32c-3.94 4.779-12.759 28.05-16.226 37.713l15.04 21.787a236.298 236.298 0 0 1-.924-10.882c-.66-10.745-.537-19.498.388-27.547.582-5.068 2.079-10.139 3.527-15.043.952-3.225 1.863-6.309 2.529-9.367-1.453.585-3.058 1.792-4.334 3.339z"/><path fill="#232b59" d="m1371.561 832.706 39.816 1.963c.038-.059.091-.111.122-.172.793-1.554-1.127-7.295-1.503-9.125a62.922 62.922 0 0 1-17.565-3.704c-.396-.145-.803-.296-1.224-.281-1.368.048-2.02 1.636-2.822 2.746-1.845 2.553-5.408 3.013-8.555 3.151-2.05.089-9.205.289-9.273 3.533-.013.614.3 1.189.814 1.714.059.059.126.116.19.175zM1325.989 343.047c10.233-2.153 23.011-18.611 7.209-24.084-9.726-3.368-42.011 1.567-35.181 17.641 2 4.707 5.427 9.198 10.124 10.985 6.264 2.385 12.099-3.33 17.848-4.542zM1325.712 394.997c4.042 1.57 9.151.847 15.098-3.571 5.107-3.794 8.772-9.227 9.109-15.7.152-2.924-.339-5.854-1.233-8.634-.923-2.87-2.176-6.225-3.954-8.656-.606-.828-1.301-1.59-2.033-2.309-.469-.461-8.601-7.545-7.785-8.159a5.913 5.913 0 0 1-2.511 1.093c-.191.034 2.274 6.25 2.477 6.798.827 2.237 1.397 4.514 1.091 6.898-.684 5.33-3.935 9.017-8.614 4.986-1.247-1.074-3.459-.954-4.845.264-.705.619-1.222 1.482-2.065 1.884-.916.436-4.678-.09-4.593-1.331-.344 5.006-.57 10.949.934 15.583 1.467 4.524 4.259 9.042 8.924 10.854z"/><path fill="#f7b690" d="M1449.62 544.17a2206.515 2206.515 0 0 1-7.352-7.941c-.686-.745-1.423-1.651-1.246-2.649.127-.714.696-1.258 1.016-1.908.574-1.166.236-2.709-.773-3.528-.683-.555-1.576-.768-2.344-1.2-.767-.431-1.459-1.265-1.235-2.116.392-1.489 8.339-.366 9.538.257 3.529 1.844 4.942 4.957 6.88 8.12 1.856 3.029 6.406 9.355 6.231 13.018-.202 4.23-4.366 4.744-7.345 1.559a2286.312 2286.312 0 0 1-3.37-3.612z"/><path fill="#232b59" d="M1463.965 824.443c-3.561 4.058-6.012 8.587-9.482 12.737 9.065 3.985 19.987 3.461 28.629-1.374a16.564 16.564 0 0 0-4.304-10.246l-14.843-1.117z"/><path fill="#f7b690" d="M1229.547 531.818a3.59 3.59 0 0 1-.318.044c-1.513.138-2.95-1.248-3.906-1.961-4.07-3.035-7.335-6.381-5.308-10.926.764-.006 1.446.36 2.025.747 2.576 1.725 4.268 4.223 4.64 6.847.301-.46.698-.977 1.357-1.047.924-.098 1.52.718 1.843 1.397l.812 1.711c.538 1.134.683 2.846-1.145 3.188zM1231.108 508.499c3.927.66 7.123 4.174 11.127 4.93 2.303.435 4.951-.003 6.766 1.48 2.766 2.26 1.781 6.928.98 9.869-.555 2.038-1.995 3.967-4.038 4.499-3.628.945-6.14-2.628-7.492-5.437-.997-2.072-1.723-4.299-3.078-6.157-1.779-2.438-4.394-3.984-6.323-6.255-.729-.858-.936-2.441.089-2.905.269-.122.574-.136.87-.129.373.008.739.044 1.099.105z"/><path fill="#d2ddfa" d="M1431.637 449.511c2.17-19.197-8.682-39.623-12.767-47.312-.574-1.081-1.07-2.014-1.208-2.357l-3.321 1.328c.209.523.646 1.345 1.37 2.707 3.943 7.422 14.417 27.136 12.372 45.232l3.554.402zM1367.255 670.198l3.5-.737c-2.431-11.545-9.029-91.572-9.603-109.347-.613-19.039-29.446-72.556-29.737-73.095-6.139-11.388-11.198-23.491-14.627-35.001-.655-2.201-1.391-4.397-2.101-6.521-2.755-8.234-5.357-16.011-3.842-24.542 1.552-8.743 6.15-17.344 13.665-25.563l-2.64-2.414c-7.979 8.728-12.873 17.931-14.547 27.351-1.674 9.428 1.196 18.006 3.972 26.302.702 2.096 1.427 4.263 2.065 6.407 3.498 11.74 8.653 24.078 14.907 35.679.288.533 28.724 53.356 29.31 71.51.577 17.852 7.226 98.322 9.678 109.971zM1457.021 558.201l2.658-2.393a461.894 461.894 0 0 1-23.184-27.897l-2.839 2.176a465.603 465.603 0 0 0 23.365 28.114z"/><radialGradient id="b" cx="1350.104" cy="-2258.733" r="103.304" gradientTransform="matrix(-.9769 .2138 .3332 1.5226 3689.677 3803.464)" gradientUnits="userSpaceOnUse"><stop offset="0" stop-color="#224f73"/><stop offset="1" stop-color="#2e6c9e"/></radialGradient><path fill="url(#b)" d="M1558.245 512.529c7.821 16.098 29.683 32.767 35.296 62.884 5.613 30.117-3.637 88.742-4.03 96.132-.393 7.389 13.742 32.901 15.906 47.034 2.164 14.133-6.033 75.002-6.033 75.002s-14.829 1.053-16.323-2.685c-1.076-2.692-23.262-94.128-26.755-115.342-3.478-21.127-19.394-143.319-19.394-143.319l21.333-19.706z"/><radialGradient id="c" cx="1601.107" cy="-2075.719" r="101.279" gradientTransform="matrix(-1 0 0 1.4899 3166.506 3748.225)" gradientUnits="userSpaceOnUse"><stop offset="0" stop-color="#224f73"/><stop offset="1" stop-color="#2e6c9e"/></radialGradient><path fill="url(#c)" d="M1522.021 513.828c-4.199 17.397-26.421 38.354-25.466 68.975.955 30.621 9.927 82.346 11.891 89.481 1.964 7.135-9.195 27.944-9.1 46.969.071 14.297 21.165 73.667 21.165 73.667l16.685-1.331s-.51-95.523.084-116.927c.595-21.404 9.792-146.145 9.792-146.145l-25.051-14.689z"/><path fill="#f7f6f1" d="M1508.049 443.117c3.16-7.265 17.341-20.169 31.573-26.764 7.656-4.756 22.48-1.467 28.492 2.356 14.936 7.71 23.279 15.267 28.33 27.559 5.051 12.291 15.086 67.11 11.313 78.174-.693 2.033-3.101 7.031-6.441 13.488 2.207 5.664 4.015 10.193 4.397 12.363 5.212 29.615-.889 92.739-3.422 94.455-4.539 3.074-102.402 4.067-106.336-4.653-3.934-8.72-2.918-68.71.569-83.743 1.049-4.522 2.634-10.031 4.531-16.039-4.351-10.72-7.499-19.509-7.63-21.635-.386-6.265 5.072-53.6 14.624-75.561z"/><path fill="#f7b690" d="M1583.061 790.896c.892 10.69 1.652 27.142.499 30.004-.571 1.418-5.668 17.459 8.55 13.047 4.078-1.266 6.716-2.587 8.291-3.836 1.997-1.583.833-5.597.504-6.414-4.122-10.203-1.41-28.589-1.41-32.122 0-3.815-16.835-5.495-16.434-.679z"/><path fill="#072b45" d="M1604.306 832.85c1.803-.406 1.648 5.633.786 6.932-.961 1.448-10.324 2.441-20.718 2.175-9.409-.241-15.385-.745-16.145-2.489-.389-.892.209-4.977 2.037-6.141 1.612-1.026 17.149-1.991 17.673-1.85s16.367 1.373 16.367 1.373z"/><path fill="#d14754" d="M1587.07 816.291c-2.06.071-6.033 4.537-7.686 9.355-1.925 2.035-5.433 2.768-7.264 5.484-1.274 1.89-2.879 5.214-2.19 6.112 2.4 3.132 32.967 2.605 34.063-.217 1.426-3.67-1.56-7.029-1.991-10.644-.356-2.986-11.546-10.207-14.932-10.09z"/><path fill="#f7b690" d="M1519.841 790.698c3.865 13.873 5.417 27.34 4.265 30.202-.571 1.418-5.668 17.459 8.55 13.047 9.25-2.87 9.193-9.266 8.87-9.973-4.548-9.954-3.88-27.203-4.329-32.384-.331-3.802-18.417-4.702-17.356-.892z"/><path fill="#072b45" d="M1546.041 832.85c1.694 1.051 2.011 5.698 1.149 6.996-.962 1.448-11.877 2.376-22.27 2.111-9.409-.241-14.196-.745-14.956-2.489-.389-.892.209-4.977 2.036-6.141 1.613-1.026 15.96-1.991 16.484-1.85s17.557 1.373 17.557 1.373z"/><path fill="#d14754" d="M1530.015 816.058c-1.996.063-4.208 1.711-5.895 4.112-.91 1.295-5.112 5.221-5.567 6.547-1.925 2.035-2.868 1.697-4.698 4.413-1.274 1.89-2.879 5.214-2.19 6.112 2.4 3.132 32.967 2.605 34.063-.217 1.426-3.67-2.749-7.029-3.18-10.644-.356-2.986-9.147-10.43-12.533-10.323z"/><path fill="#97c4de" d="M1591.974 555.127s.443 51.169-3.984 54.052c-4.427 2.883-76.792 2.522-80.249.297-4.3-2.767-4.3-52.566-4.3-56.749s84.873-2.71 88.533 2.4z"/><path fill="#f7b690" d="M1535.605 582.061c6.071 11.006 12.51 30.182 11.468 32.478-1.042 2.296-15.043 2.096-16.192.704-1.023-1.24-3.188-12.554-3.707-15.296-.502-2.65.959-13.212.959-13.212l7.472-4.674z"/><path fill="#f7b690" d="M1557.365 588.23c-3.465 6.8-16.188 22.933-16.166 27.835.011 2.591 13.043 3.956 15.999 3.206 2.767-.703 6.587-15.538 7.23-21.81.644-6.272-7.063-9.231-7.063-9.231z"/><path fill="#232b59" d="M1529.106 383.037c-8.315-5.719.172-35.564 13.453-46.055 13.28-10.49 24.71-4.542 29.075-1.887 6.904 4.2 33.577 31.464 14.995 49.279-18.583 17.817-57.523-1.337-57.523-1.337z"/><path fill="#2e6c9e" d="M1554.558 416.431c4.602.731 12.438 3.766 16.755 9.315 4.316 5.549-17.286 44.095-19.069 44.095-3.765 0-19.224-40.33-17.391-45.086 1.235-3.204 14.524-9.147 19.705-8.324z"/><path fill="#f3a088" d="M1562.55 391.227c.853 13.378 3.475 27.449 5.737 31.67 3.183 5.942-14.03 11.603-21.245 9.693-7.215-1.91-9.338-5.73-9.55-8.276-.212-2.547 8.455-10.961 9.975-28.862 1.211-14.268 14.735-9.678 15.083-4.225z"/><path fill="#f7b690" d="M1534.441 360.475c-2.06 18.359 5.223 38.215 11.158 39.284 8.058 1.452 22.424-9.033 22.908-26.047 5.647-.367 7.598-6.737 5.974-9.523-2.9-4.978-6.777.44-6.777.44s-1.885-9.237-17.287-16.839c-5.11-.723-15.482 8.276-15.976 12.685z"/><path fill="#97c4de" d="M1574 496.809a.695.695 0 0 0 .32-.077c15.696-8.031 14.15-18.862 6.568-33.734a.705.705 0 0 0-1.254.639c8.596 16.862 7.038 25.194-5.954 31.842a.703.703 0 0 0 .32 1.33zM1528.662 495.917a.704.704 0 0 0 .365-1.307c-6.344-3.831-9.996-8.637-10.856-14.283-.94-6.176 1.66-13.257 7.132-19.429a.704.704 0 0 0-1.054-.934c-5.751 6.485-8.473 13.984-7.47 20.575.925 6.079 4.801 11.219 11.52 15.276.113.07.239.102.363.102zM1592.983 554.427a.706.706 0 0 0 .616-.362c2.865-5.158 6.428-11.8 7.959-14.767a.704.704 0 0 0-1.252-.646c-1.525 2.957-5.079 9.582-7.938 14.728a.705.705 0 0 0 .615 1.047zM1569.474 545.523c.282 0 .549-.17.657-.45.731-1.89 1.461-3.744 2.179-5.57 5.767-14.65 10.749-27.304 9.685-41.08-.029-.387-.36-.695-.756-.647a.703.703 0 0 0-.647.756c1.038 13.453-3.887 25.967-9.591 40.455a955.649 955.649 0 0 0-2.183 5.578.704.704 0 0 0 .656.958zM1505.222 550.997a.704.704 0 0 0 .641-.994c-.439-.97-.887-2.104-1.32-3.203-.588-1.489-1.196-3.03-1.808-4.232a.702.702 0 0 0-.946-.308.705.705 0 0 0-.308.947c.581 1.143 1.177 2.651 1.753 4.111.439 1.113.894 2.264 1.346 3.266a.706.706 0 0 0 .642.413zM1528.462 549.337a.705.705 0 0 0 .653-.967c-6.859-17.035-11.439-43.628-9.423-54.721a.704.704 0 0 0-.567-.819.709.709 0 0 0-.818.567c-2.286 12.581 3.131 39.677 9.502 55.497.11.276.374.443.653.443zM1551.254 547.868c.335 0 .632-.24.692-.581.03-.168 2.968-16.909 3.316-33.445.205-9.747-.649-21.262-1.271-29.67-.409-5.512-.762-10.274-.526-11.131.476-1.233 7.815-6.124 21.811-14.526a240.913 240.913 0 0 0 2.406-1.454c.67-.416.753-.956.743-1.24-.047-1.352-2.2-2.562-5.711-4.423-1.75-.928-4.395-2.33-4.595-2.933.268-1.536 9.618-10.546 14.112-14.874.958-.923 1.833-1.767 2.572-2.486a.704.704 0 0 0-.983-1.008c-.736.717-1.61 1.559-2.566 2.48-9.198 8.862-14.236 13.995-14.524 15.747-.216 1.316 1.677 2.385 5.324 4.319 1.755.93 4.662 2.472 4.946 3.182l-.063.041c-.43.267-1.27.771-2.387 1.442-15.706 9.429-21.999 13.736-22.445 15.36-.287 1.046-.047 4.507.48 11.609.621 8.379 1.472 19.855 1.268 29.536-.346 16.429-3.265 33.061-3.294 33.227a.705.705 0 0 0 .695.828zM1548.826 471.212c.285 0 .485-.071.651-.167a.705.705 0 0 0-.706-1.219c-.012.002-.025.002-.039.002-.728 0-4.344-1.97-10.143-6.563-6.325-5.01-9.362-8.442-9.423-9.185.286-.599 3.804-2.279 5.694-3.181 3.808-1.819 4.791-2.334 4.477-3.28-.393-1.174-6.847-9.678-17.109-17.576a.704.704 0 1 0-.859 1.115c9.592 7.383 15.41 14.88 16.474 16.619-.623.434-2.311 1.24-3.59 1.851-4.516 2.157-6.496 3.23-6.496 4.457 0 2.711 12.404 12.707 17.876 15.859 1.692.976 2.616 1.268 3.193 1.268zM1549.125 482.867c.34 0 .639-.246.694-.593.006-.041.158-1.032.006-3.264-.025-.388-.342-.694-.75-.655a.703.703 0 0 0-.654.75c.138 2.044.008 2.944.006 2.952a.706.706 0 0 0 .698.81zM1550.363 508.321a.702.702 0 0 0 .673-.503c.018-.06.441-1.527.016-3.656a.712.712 0 0 0-.828-.553.704.704 0 0 0-.553.828c.353 1.765.018 2.972.014 2.984a.706.706 0 0 0 .678.9zM1549.19 535.155a.704.704 0 0 0 .694-.589c.052-.312.494-3.101-.034-4.531a.703.703 0 1 0-1.321.486c.3.815.138 2.772-.034 3.815a.703.703 0 0 0 .695.819z"/><path fill="#f7f6f1" d="M1568.675 547.164s-14.769 39.13-13.855 42.181c.915 3.051 9.197 8.042 11.296 6.837 2.1-1.205 25.857-41.055 25.857-41.055l-2.967-8.537-20.331.574zM1528.462 550.293s10.384 34.365 10.529 36.079c.145 1.715-9.797 5.425-11.922 5.425s-21.847-40.022-21.847-40.022l5.305-6.956 17.935 5.474z"/><path fill="#97c4de" d="M1547.072 646.504h.025a.705.705 0 0 0 .679-.728c-.005-.168-.559-16.84.63-23.23a.703.703 0 1 0-1.384-.257c-1.218 6.541-.677 22.845-.653 23.536a.704.704 0 0 0 .703.679z"/><path fill="#f7f6f1" d="M716.95 444.87c3.397 2.844 11.961 58.115 14.61 84.608 2.353 23.524 2.353 52.317 2.353 52.317l-45.182-53.281c0-.001-.703-107.857 28.219-83.644z"/><path fill="#2e6c9e" d="m676.407 590.536-6.838-56.925 77.082 4.568-.752 62.098z"/><path fill="#072b45" d="M667.995 820.555c-2.15-.348-1.852 4.885-1.068 5.3 5.245 2.78 18.153 3.148 28.307 3.87 11.864.844 21.433 1.179 25.081-1.572 1.917-1.446 2.127-4.745-2.114-6.793-1.951-.942-28.858-2.606-29.473-2.445-.614.162-20.733 1.64-20.733 1.64z"/><path fill="#f7b690" d="M689.266 784.49c.438 7.828-1.755 19.622-.372 22.527.545 1.145 4.872 9.607 1.694 12.987-4.882 5.192-17.135 5.895-20.274-6.348 3.209-13.019 2.477-23.43 2.477-27.303 0-3.874 16.243-6.007 16.475-1.863z"/><path fill="#0a3c5f" d="M668.075 822.158c.849 3 43.928 7.857 50.11 3.849 3.283-2.128.362-4.563-3.351-6.125-4.325-1.812-14.858-9.864-18.878-11.653-3.306-1.461-5.713-7.962-7.011-6.793-1.212 1.091-2.776 7.929-2.21 10.521.555 2.536.17 4.741-.959 5.085-6.332 1.926-12.968-8.758-14.678-8.25-2.209.655-3.895 10.32-3.023 13.366z"/><path fill="#f7b690" d="M648.233 780.716c-3.967 10.339-1.276 25.15-.086 28.104.59 1.464 5.851 18.023-8.826 13.469-9.548-2.963-9.174-10.221-8.761-11.317 3.794-10.073-.164-25.859-.164-29.411 0-3.939 19.299-4.657 17.837-.845z"/><path fill="#072b45" d="M626.731 821.156c-1.861-.419-1.182 6.091-.675 6.766.507.674 10.521 2.91 21.251 2.636 9.713-.249 15.882-.769 16.666-2.569.401-.921-.215-5.138-2.102-6.339-1.665-1.059-17.703-2.056-18.244-1.91-.542.145-16.896 1.416-16.896 1.416z"/><path fill="#0a3c5f" d="M645.543 803.943c2.126.073 5.209 4.803 6.915 9.777 1.988 2.101 5.609 2.857 7.499 5.661 1.315 1.951 2.972 5.382 2.261 6.31-2.477 3.233-34.032 2.689-35.163-.224-1.472-3.789 1.611-7.256 2.055-10.987.408-3.421-.011-5.129 1.197-6.938.373-.559 1.312-.221 1.278.854-.074 2.361-.434 6.534 2.975 7.014 2.943-8.676 7.487-11.588 10.983-11.467z"/><path fill="#255882" d="M711.321 560.042s-5.378 48.066.104 109.235l-1.679 10.292c-8.708 53.317-16.963 101.278-19.686 114.434-1.04 5.025-17.011 2.688-17.706-2.397-2.704-19.795-14.889-60.803-12.576-79.117 1.031-8.16 7.208-22.77 11.335-32.685 5.153-12.383-19.584-82.038-.295-136.659 5.218-14.774 40.503 16.897 40.503 16.897z"/><path fill="#275c87" d="M676.354 559.036s-22.525 206.182-26.812 234.224c-.776 5.073-18.643 4.289-19.603-.753-3.737-19.626-18.051-59.941-16.699-78.35.602-8.203 6.006-23.116 9.608-33.234 1.865-5.24-1.918-20.045-5.816-39.543-5.502-27.523-2.178-62.544 7.423-95.062 4.438-15.026 51.899 12.718 51.899 12.718z"/><path fill="#f7f6f1" d="m713.646 668.358-103.592-3.572s10.185-188.198-9.632-223.569c-4.851-8.676 12.155-19.161 30.394-26.062 13.043-4.943 26.719-8.042 33.494-7.339 6.683.691 14.529 3.076 22.133 6.775 13.55 6.579 26.35 17.352 30.51 30.279 6.487 20.185-3.307 223.488-3.307 223.488z"/><path fill="#f3a088" d="M675.105 381.998s4.981 32.96 4.749 33.9c-.44 1.785-9.311-5.881-12.336-4.135-4.403 2.541-23.152 8.057-24.786 4.135-.36-.865 4.283-37.789 4.283-37.789l28.09 3.889z"/><path fill="#232b59" d="M680.248 373.308c7.903-7.224 2.827-12.009 9.792-16.667-1.714-.786-4.722-.901-6.473-.199 1.794-2.709 2.38-6.48 5.055-7.906-1.98-.332-5.128.107-7.252 1.535.073-2.563 4.979-5.272 4.101-8.543-1.123 1.416-4.882 3.075-7.396 3.124-.128-1.673 1.635-5.37 5.297-7.615-3.757-.308-6.474-.067-9.373 2.343-.727-2.598.435-4.798 2.148-6.883-2.294-.445-6.395.195-8.52 4.284-1.573-1.03-2.289-5.417-2.366-8.384-1.804 1.357-3.771 5.712-4.283 7.744-.075-2.159-1.151-7.229-2.014-9.208-2.124 5.419-7.095 4.106-7.469 10.837-.614-3.034-6.296-4.917-8.25-5.956 2.063 4.491 1.778 8.934 1.22 9.544-.464.508-4.137-1.611-4.133-6.06-2.591 2.563-5.236 7.642-2.018 15.653-1-.059-4.064-2.783-5.199-6.078-.989 1.439-2.328 9.386.576 16.941-.674-.026-1.967-.832-2.904-1.784 2.304 11.033 7.987 15.262 10.212 17.769 1.698 1.913 5.349.348 7.701.897 5.461 1.274 11.036 2.175 16.598 2.888l14.95-8.276z"/><path fill="#f7b690" d="M682.001 359.827c1.997 3.085 1.854 13.388 1.743 16.906-.126 4.014-3.764 21.071-8.267 23.548-3.911 2.151-15.225 2.811-17.975 1.505-6.688-3.177-12.799-14.753-13.651-21.752-3.754.201-7.87-18.76-2.296-15.837 1.667.874 2.447 5.495 2.515 7.141.066 1.589 1.646 3.68 1.819 3.165 1.451-4.299 2.173-13.521 3.483-14.305 2.366-1.416 6.038.557 6.549 3.576 1.113-1.483 1.927-3.692.116-5.713 4.375-.975 9.336-.697 13.229 6.142.913-1.916.517-6.205-1.32-8.513 3.731.525 6.797 3.555 7.724 6.921.849-2.286.5-5.316-1.243-8.354 1.763.721 6.557 4 7.574 5.57z"/><path fill="#f7f6f1" d="M600.683 434.243c-15.853 25.372-29.932 92.513-26.731 105.052 2.688 10.531 35.333 23.26 75.107 20.316 5.673-.42 1.706-30.518 1.706-30.518s-34.843-2.748-34.763-11.823c.08-9.075 2.925-15.699 2.925-26.055 0-10.357-18.244-56.972-18.244-56.972z"/><path fill="#f3a088" d="M737.218 601.929c-2.693.939-4.306-2.641-5.127-2.403-1.034.3-1.309 2.831-2.511 3.047-1.657.298-9.179-1.398-9.797-2.117-1.033-1.203-1.364-7.286.303-7.992.721-.306 7.612-2.004 9.025-1.556.92.292 1.215 5.146 2.095 5.177 1.983.068-.172-4.826 3.272-4.464 3.626.381 4.805 9.588 2.74 10.308z"/><path fill="#f7b690" d="M674 529.478c-.673-1.771-3.34-1.36-5.361-.701 1.213-.829 1.937-1.995 1.436-3.755-.196-.689-3.262.528-6.026.817-2.286.239-4.652-.872-7.13.53-4.076 2.306-7.861 7.936-7.861 7.936l1.545 10.896c7.363 6.458 18.499 3.565 21.38 1.369 3.071-2.343 3.064-14.339 2.017-17.092z"/><path fill="#d6956f" d="M658.265 531.255a.288.288 0 0 1-.141-.539c.594-.334 2.333-.572 4.347-.847 2.06-.281 4.395-.6 5.361-1.037a.288.288 0 0 1 .238.525c-1.042.471-3.318.783-5.521 1.083-1.791.245-3.644.498-4.143.778a.286.286 0 0 1-.141.037z"/><path fill="#97c4de" d="M650.764 529.776a.681.681 0 0 1-.647-.466c-.653-1.84-16.411-4.647-23.983-5.996-9.013-1.606-10.313-1.907-10.698-2.481-.544-.812-.235-4.048 1.193-15.574.596-4.81 1.212-9.782 1.619-14.107a.677.677 0 0 1 .743-.615.68.68 0 0 1 .615.742c-.408 4.346-1.026 9.329-1.623 14.148-.771 6.22-1.641 13.24-1.413 14.579.962.391 5.453 1.191 9.803 1.965 16.377 2.917 24.301 4.695 25.038 6.908a.68.68 0 0 1-.647.897zm-34.164-9.643h.012-.012zM642.869 560.816c-9.467 0-25.721-1.444-28.439-1.824a.681.681 0 1 1 .189-1.35c5.004.697 31.467 2.688 34.135 1.358 2.255-1.124 3.95-7.583 4.413-9.977a.681.681 0 0 1 1.339.26c-.183.948-1.887 9.314-5.143 10.938-.86.43-3.288.595-6.494.595zM719.173 534.293l-.056-.002a.683.683 0 0 1-.625-.735c.032-.398 3.191-40.109 1.204-59.41a.683.683 0 0 1 1.357-.141c1.999 19.426-1.17 59.26-1.202 59.66a.68.68 0 0 1-.678.628z"/><path fill="#b3d5e8" d="M681.972 463.65c-8.549 3.606-12.086 5.127-20.682 0-7.696-4.597-28.828-34.612-30.475-48.495 6.911-2.619 13.999-4.72 20.145-6.013 5.453-1.147 10.636 1.523 13.822 1.853 4.004.414 7.953-1.744 12.49-.195a80.59 80.59 0 0 1 9.171 3.79c1.694 9.955 4.056 28.067-4.471 49.06z"/><path fill="#2e6c9e" d="M660.404 417.332s5.339 11.33 6.683 13.826c1.344 2.496-5.837 28.69-5.799 32.492 2.919 3.299 14.248 11.099 14.248 11.099s5.625-8.609 6.439-11.099c.65-8.671-11.006-31.526-10.212-35.27.794-3.745 4.253-12.776 4.253-12.776l-6.481-4.609h-4.033l-5.098 6.337z"/><path fill="#9ccbe6" d="M643.083 401.295c-2.496-.001-6.934 11.348-6.529 12.965.602 2.4 15.843 11.714 19.875 11.714 1.154 0 9.313-13.538 11.426-13.73 2.112-.192 8.076 12.065 10.274 11.33 1.434-.48 4.818-7.839 4.524-10.719-.294-2.88-2.566-9.436-3.66-9.636-1.094-.2-7.681 6.721-11.138 7.201-4.085.566-23.23-9.125-24.772-9.125z"/><path fill="#97c4de" d="M674.631 663.429a.682.682 0 0 1-.643-.909c2.226-6.332 3.246-40.735 2.875-96.871-.294-44.504-1.381-86.484-1.791-88.264-1.138-1.868-23.708-10.214-32.204-13.356-4.316-1.596-6.24-2.311-6.621-2.52a.95.95 0 0 1-.486-.672c-.159-.857.768-1.997 2.711-4.29 1.389-1.641 4.281-5.053 3.692-5.847-.641-.86-6.089-.213-9.343.172-5.547.657-7.537.794-8.103-.256-.254-.471-.522-1.614-1.055-3.947-1.302-5.695-3.726-16.295-8.218-22.608a.68.68 0 0 1 .16-.95.684.684 0 0 1 .951.159c4.65 6.535 7.114 17.307 8.437 23.096.384 1.683.748 3.273.926 3.604.516.283 4.114-.142 6.74-.452 5.903-.701 9.561-1.028 10.599.369 1.235 1.662-1.297 4.651-3.745 7.541-.868 1.026-2.018 2.383-2.329 3.01.851.349 3.339 1.269 6.156 2.311 23.834 8.813 32.479 12.539 33.034 14.234.482 1.471 1.556 44.723 1.849 88.172.27 40.027-.023 89.489-2.95 97.817a.676.676 0 0 1-.642.457zM677.619 475.431a.682.682 0 0 1-.28-1.304c8.707-3.904 18.181-19.107 18.264-20.849-.166-.477-2.4-2.56-3.879-3.938-2.903-2.707-3.638-3.475-3.676-4.124a.908.908 0 0 1 .262-.633c.53-.473 1.777-.327 6.463.464 2.477.42 6.188 1.05 7.013.831.725-1.507-.071-12.971-2.319-19.687a.682.682 0 1 1 1.294-.434c2.122 6.34 3.586 19.862 1.888 21.203-.718.57-2.56.37-8.104-.567-1.551-.261-3.527-.595-4.656-.696.653.676 1.833 1.777 2.765 2.645 2.738 2.553 4.053 3.845 4.278 4.666.603 2.197-10.44 18.512-19.035 22.364a.681.681 0 0 1-.278.059z"/></svg>